Ortica Angular.ufo
<glyph name="exclam" format="2">
  <advance width="325"/>
  <unicode hex="0021"/>
  <outline>
    <contour>
      <point x="126" y="184" type="line"/>
      <point x="80" y="705" type="line"/>
      <point x="214" y="705" type="line"/>
      <point x="166" y="184" type="line"/>
    </contour>
    <component base="period" xOffset="4"/>
  </outline>
</glyph>
<glyph name="numbersign" format="2">
  <advance width="787"/>
  <unicode hex="0023"/>
  <outline>
    <contour>
      <point x="329" y="700" type="line"/>
      <point x="139" y="0" type="line"/>
      <point x="204" y="0" type="line"/>
      <point x="394" y="700" type="line"/>
    </contour>
    <contour>
      <point x="81" y="439" type="line"/>
      <point x="723" y="439" type="line"/>
      <point x="737" y="496" type="line"/>
      <point x="95" y="496" type="line"/>
    </contour>
    <contour>
      <point x="49" y="185" type="line"/>
      <point x="684" y="186" type="line"/>
      <point x="699" y="244" type="line"/>
      <point x="63" y="243" type="line"/>
    </contour>
    <contour>
      <point x="588" y="700" type="line"/>
      <point x="405" y="0" type="line"/>
      <point x="470" y="0" type="line"/>
      <point x="653" y="700" type="line"/>
    </contour>
  </outline>
</glyph>
<glyph name="dollar" format="2">
  <advance width="641"/>
  <unicode hex="0024"/>
  <guideline x="319" y="-134" angle="180"/>
  <anchor x="302" y="0" name="bottom"/>
  <anchor x="302" y="700" name="top"/>
  <outline>
    <contour>
      <point x="291" y="770" type="line"/>
      <point x="291" y="-84" type="line"/>
      <point x="346" y="-84" type="line"/>
      <point x="346" y="770" type="line"/>
    </contour>
    <contour>
      <point x="549" y="646" type="line"/>
      <point x="368" y="720" type="line"/>
      <point x="155" y="703" type="line"/>
      <point x="42" y="537" type="line"/>
      <point x="99" y="370" type="line"/>
      <point x="418" y="228" type="line"/>
      <point x="431" y="107" type="line"/>
      <point x="352" y="35" type="line"/>
      <point x="207" y="81" type="line"/>
      <point x="130" y="281" type="line"/>
      <point x="99" y="282" type="line"/>
      <point x="72" y="73" type="line"/>
      <point x="191" y="7" type="line"/>
      <point x="383" y="-12" type="line"/>
      <point x="553" y="92" type="line"/>
      <point x="587" y="249" type="line"/>
      <point x="504" y="362" type="line"/>
      <point x="242" y="473" type="line"/>
      <point x="203" y="561" type="line"/>
      <point x="246" y="654" type="line"/>
      <point x="335" y="671" type="line"/>
      <point x="423" y="616" type="line"/>
      <point x="468" y="456" type="line"/>
      <point x="498" y="456" type="line"/>
    </contour>
  </outline>
</glyph>
<glyph name="percent" format="2">
  <advance width="761"/>
  <unicode hex="0025"/>
  <outline>
    <contour>
      <point x="106" y="1" type="line"/>
      <point x="174" y="1" type="line"/>
      <point x="669" y="705" type="line"/>
      <point x="601" y="705" type="line"/>
    </contour>
    <contour>
      <point x="657" y="5" type="line"/>
      <point x="533" y="-10" type="line"/>
      <point x="450" y="75" type="line"/>
      <point x="429" y="180" type="line"/>
      <point x="493" y="296" type="line"/>
      <point x="618" y="310" type="line"/>
      <point x="701" y="232" type="line"/>
      <point x="721" y="129" type="line"/>
    </contour>
    <contour>
      <point x="563" y="270" type="line"/>
      <point x="522" y="251" type="line"/>
      <point x="505" y="142" type="line"/>
      <point x="547" y="41" type="line"/>
      <point x="593" y="30" type="line"/>
      <point x="627" y="51" type="line"/>
      <point x="640" y="155" type="line"/>
      <point x="605" y="258" type="line"/>
    </contour>
    <contour>
      <point x="268" y="401" type="line"/>
      <point x="144" y="386" type="line"/>
      <point x="61" y="471" type="line"/>
      <point x="40" y="576" type="line"/>
      <point x="104" y="692" type="line"/>
      <point x="229" y="706" type="line"/>
      <point x="312" y="628" type="line"/>
      <point x="332" y="525" type="line"/>
    </contour>
    <contour>
      <point x="174" y="666" type="line"/>
      <point x="134" y="647" type="line"/>
      <point x="116" y="538" type="line"/>
      <point x="158" y="438" type="line"/>
      <point x="204" y="426" type="line"/>
      <point x="238" y="447" type="line"/>
      <point x="251" y="552" type="line"/>
      <point x="215" y="654" type="line"/>
    </contour>
  </outline>
</glyph>
<glyph name="ampersand" format="2">
  <advance width="720"/>
  <unicode hex="0026"/>
  <outline>
    <contour>
      <point x="260" y="386" type="line"/>
      <point x="234" y="416" type="line"/>
      <point x="61" y="306" type="line"/>
      <point x="35" y="115" type="line"/>
      <point x="178" y="-17" type="line"/>
      <point x="392" y="0" type="line"/>
      <point x="485" y="102" type="line"/>
      <point x="634" y="363" type="line"/>
      <point x="719" y="371" type="line"/>
      <point x="719" y="402" type="line"/>
      <point x="460" y="401" type="line"/>
      <point x="460" y="371" type="line"/>
      <point x="536" y="363" type="line"/>
      <point x="536" y="307" type="line"/>
      <point x="457" y="152" type="line"/>
      <point x="315" y="69" type="line"/>
      <point x="177" y="130" type="line"/>
      <point x="161" y="271" type="line"/>
    </contour>
    <contour>
      <point x="620" y="52" type="line"/>
      <point x="221" y="477" type="line"/>
      <point x="201" y="600" type="line"/>
      <point x="270" y="671" type="line"/>
      <point x="385" y="655" type="line"/>
      <point x="453" y="486" type="line"/>
      <point x="472" y="486" type="line"/>
      <point x="531" y="623" type="line"/>
      <point x="480" y="680" type="line"/>
      <point x="299" y="720" type="line"/>
      <point x="141" y="680" type="line"/>
      <point x="76" y="554" type="line"/>
      <point x="96" y="424" type="line"/>
      <point x="506" y="9" type="line"/>
      <point x="558" y="0" type="line"/>
      <point x="722" y="0" type="line"/>
      <point x="722" y="22" type="line"/>
      <point x="678" y="25" type="line"/>
    </contour>
  </outline>
</glyph>
<glyph name="quotesingle" format="2">
  <advance width="164"/>
  <unicode hex="0027"/>
  <outline>
    <contour>
      <point x="90" y="559" type="line"/>
      <point x="73" y="559" type="line"/>
      <point x="40" y="770" type="line"/>
      <point x="124" y="770" type="line"/>
    </contour>
  </outline>
</glyph>
<glyph name="parenleft" format="2">
  <advance width="409"/>
  <unicode hex="0028"/>
  <outline>
    <contour>
      <point x="357" y="716" type="line"/>
      <point x="168" y="553" type="line"/>
      <point x="90" y="275" type="line"/>
      <point x="168" y="-12" type="line"/>
      <point x="361" y="-214" type="line"/>
      <point x="379" y="-196" type="line"/>
      <point x="276" y="-19" type="line"/>
      <point x="217" y="275" type="line"/>
      <point x="276" y="564" type="line"/>
      <point x="375" y="698" type="line"/>
    </contour>
  </outline>
</glyph>
<glyph name="plus" format="2">
  <advance width="605"/>
  <unicode hex="002B"/>
  <outline>
    <contour>
      <point x="545" y="350" type="line"/>
      <point x="60" y="350" type="line"/>
      <point x="60" y="289" type="line"/>
      <point x="545" y="289" type="line"/>
    </contour>
    <contour>
      <point x="336" y="74" type="line"/>
      <point x="336" y="565" type="line"/>
      <point x="269" y="565" type="line"/>
      <point x="269" y="74" type="line"/>
    </contour>
  </outline>
</glyph>
<glyph name="comma" format="2">
  <advance width="295"/>
  <unicode hex="002C"/>
  <outline>
    <contour>
      <point x="209" y="-49" type="line"/>
      <point x="229" y="41" type="line"/>
      <point x="208" y="116" type="line"/>
      <point x="149" y="140" type="line"/>
      <point x="89" y="118" type="line"/>
      <point x="66" y="64" type="line"/>
      <point x="90" y="1" type="line"/>
      <point x="154" y="-11" type="line"/>
      <point x="166" y="-40" type="line"/>
      <point x="76" y="-153" type="line"/>
      <point x="100" y="-172" type="line"/>
    </contour>
  </outline>
</glyph>
<glyph name="period" format="2">
  <advance width="287"/>
  <unicode hex="002E"/>
  <outline>
    <contour>
      <point x="192" y="-3" type="line"/>
      <point x="134" y="-12" type="line"/>
      <point x="81" y="11" type="line"/>
      <point x="66" y="71" type="line"/>
      <point x="97" y="121" type="line"/>
      <point x="156" y="133" type="line"/>
      <point x="207" y="110" type="line"/>
      <point x="221" y="52" type="line"/>
    </contour>
  </outline>
</glyph>
<glyph name="zero" format="2">
  <advance width="695"/>
  <unicode hex="0030"/>
  <outline>
    <contour>
      <point x="472" y="0" type="line"/>
      <point x="239" y="0" type="line"/>
      <point x="65" y="230" type="line"/>
      <point x="65" y="496" type="line"/>
      <point x="239" y="705" type="line"/>
      <point x="472" y="705" type="line"/>
      <point x="630" y="518" type="line"/>
      <point x="630" y="232" type="line"/>
    </contour>
    <contour>
      <point x="347" y="665" type="line"/>
      <point x="265" y="635" type="line"/>
      <point x="208" y="342" type="line"/>
      <point x="267" y="77" type="line"/>
      <point x="353" y="42" type="line"/>
      <point x="427" y="71" type="line"/>
      <point x="488" y="344" type="line"/>
      <point x="426" y="635" type="line"/>
    </contour>
  </outline>
</glyph>
<glyph name="one" format="2">
  <advance width="514"/>
  <unicode hex="0031"/>
  <outline>
    <contour>
      <point x="328" y="720" type="line"/>
      <point x="55" y="639" type="line"/>
      <point x="55" y="612" type="line"/>
      <point x="187" y="648" type="line"/>
      <point x="187" y="75" type="line"/>
      <point x="114" y="30" type="line"/>
      <point x="50" y="27" type="line"/>
      <point x="50" y="0" type="line"/>
      <point x="472" y="0" type="line"/>
      <point x="472" y="27" type="line"/>
      <point x="405" y="30" type="line"/>
      <point x="334" y="75" type="line"/>
      <point x="334" y="720" type="line"/>
    </contour>
  </outline>
</glyph>
<glyph name="two" format="2">
  <advance width="618"/>
  <unicode hex="0032"/>
  <outline>
    <contour>
      <point x="40" y="474" type="line"/>
      <point x="67" y="466" type="line"/>
      <point x="196" y="636" type="line"/>
      <point x="338" y="627" type="line"/>
      <point x="408" y="516" type="line"/>
      <point x="356" y="348" type="line"/>
      <point x="42" y="41" type="line"/>
      <point x="41" y="-1" type="line"/>
      <point x="534" y="0" type="line"/>
      <point x="574" y="214" type="line"/>
      <point x="551" y="214" type="line"/>
      <point x="510" y="125" type="line"/>
      <point x="463" y="99" type="line"/>
      <point x="177" y="103" type="line"/>
      <point x="211" y="151" type="line"/>
      <point x="535" y="378" type="line"/>
      <point x="563" y="568" type="line"/>
      <point x="455" y="700" type="line"/>
      <point x="252" y="714" type="line"/>
      <point x="78" y="641" type="line"/>
    </contour>
  </outline>
</glyph>
<glyph name="three" format="2">
  <advance width="614"/>
  <unicode hex="0033"/>
  <outline>
    <contour>
      <point x="92" y="551" type="line"/>
      <point x="50" y="586" type="line"/>
      <point x="129" y="687" type="line"/>
      <point x="253" y="725" type="line"/>
      <point x="443" y="684" type="line"/>
      <point x="519" y="567" type="line"/>
      <point x="474" y="446" type="line"/>
      <point x="303" y="383" type="line"/>
      <point x="481" y="349" type="line"/>
      <point x="549" y="190" type="line"/>
      <point x="448" y="29" type="line"/>
      <point x="251" y="-16" type="line"/>
      <point x="43" y="49" type="line"/>
      <point x="75" y="232" type="line"/>
      <point x="100" y="232" type="line"/>
      <point x="140" y="85" type="line"/>
      <point x="207" y="40" type="line"/>
      <point x="332" y="56" type="line"/>
      <point x="396" y="149" type="line"/>
      <point x="338" y="289" type="line"/>
      <point x="230" y="354" type="line"/>
      <point x="131" y="349" type="line"/>
      <point x="126" y="392" type="line"/>
      <point x="237" y="412" type="line"/>
      <point x="359" y="505" type="line"/>
      <point x="336" y="614" type="line"/>
      <point x="200" y="650" type="line"/>
    </contour>
  </outline>
</glyph>
<glyph name="four" format="2">
  <advance width="653"/>
  <unicode hex="0034"/>
  <outline>
    <contour>
      <point x="346" y="562" type="line"/>
      <point x="346" y="273" type="line"/>
      <point x="75" y="273" type="line"/>
      <point x="71" y="228" type="line"/>
    </contour>
    <contour>
      <point x="30" y="183" type="line"/>
      <point x="346" y="183" type="line"/>
      <point x="346" y="73" type="line"/>
      <point x="297" y="30" type="line"/>
      <point x="238" y="27" type="line"/>
      <point x="238" y="0" type="line"/>
      <point x="589" y="0" type="line"/>
      <point x="589" y="27" type="line"/>
      <point x="530" y="30" type="line"/>
      <point x="480" y="75" type="line"/>
      <point x="480" y="183" type="line"/>
      <point x="595" y="183" type="line"/>
      <point x="595" y="273" type="line"/>
      <point x="480" y="273" type="line"/>
      <point x="480" y="705" type="line"/>
      <point x="403" y="705" type="line"/>
      <point x="30" y="238" type="line"/>
    </contour>
  </outline>
</glyph>
<glyph name="five" format="2">
  <advance width="602"/>
  <unicode hex="0035"/>
  <outline>
    <contour>
      <point x="75" y="233" type="line"/>
      <point x="40" y="61" type="line"/>
      <point x="236" y="-14" type="line"/>
      <point x="437" y="32" type="line"/>
      <point x="562" y="213" type="line"/>
      <point x="515" y="372" type="line"/>
      <point x="322" y="464" type="line"/>
      <point x="119" y="393" type="line"/>
      <point x="158" y="644" type="line"/>
      <point x="116" y="580" type="line"/>
      <point x="505" y="580" type="line"/>
      <point x="505" y="705" type="line"/>
      <point x="121" y="705" type="line"/>
      <point x="65" y="321" type="line"/>
      <point x="97" y="306" type="line"/>
      <point x="182" y="376" type="line"/>
      <point x="309" y="386" type="line"/>
      <point x="413" y="268" type="line"/>
      <point x="409" y="98" type="line"/>
      <point x="354" y="47" type="line"/>
      <point x="207" y="50" type="line"/>
      <point x="138" y="101" type="line"/>
      <point x="111" y="233" type="line"/>
    </contour>
  </outline>
</glyph>
<glyph name="six" format="2">
  <advance width="640"/>
  <unicode hex="0036"/>
  <outline>
    <contour>
      <point x="138" y="360" type="line"/>
      <point x="148" y="331" type="line"/>
      <point x="271" y="381" type="line"/>
      <point x="389" y="381" type="line"/>
      <point x="475" y="283" type="line"/>
      <point x="475" y="140" type="line"/>
      <point x="431" y="66" type="line"/>
      <point x="299" y="72" type="line"/>
      <point x="222" y="199" type="line"/>
      <point x="197" y="450" type="line"/>
      <point x="233" y="586" type="line"/>
      <point x="332" y="661" type="line"/>
      <point x="435" y="663" type="line"/>
      <point x="499" y="605" type="line"/>
      <point x="518" y="503" type="line"/>
      <point x="550" y="503" type="line"/>
      <point x="584" y="668" type="line"/>
      <point x="397" y="720" type="line"/>
      <point x="209" y="681" type="line"/>
      <point x="95" y="544" type="line"/>
      <point x="36" y="331" type="line"/>
      <point x="97" y="117" type="line"/>
      <point x="258" y="-6" type="line"/>
      <point x="407" y="-1" type="line"/>
      <point x="538" y="75" type="line"/>
      <point x="610" y="220" type="line"/>
      <point x="570" y="372" type="line"/>
      <point x="461" y="448" type="line"/>
      <point x="311" y="448" type="line"/>
    </contour>
  </outline>
</glyph>
<glyph name="seven" format="2">
  <advance width="571"/>
  <unicode hex="0037"/>
  <outline>
    <contour>
      <point x="22" y="705" type="line"/>
      <point x="22" y="578" type="line"/>
      <point x="428" y="578" type="line"/>
      <point x="430" y="634" type="line"/>
      <point x="265" y="409" type="line"/>
      <point x="176" y="217" type="line"/>
      <point x="153" y="0" type="line"/>
      <point x="280" y="0" type="line"/>
      <point x="287" y="193" type="line"/>
      <point x="348" y="409" type="line"/>
      <point x="524" y="682" type="line"/>
      <point x="513" y="705" type="line"/>
    </contour>
  </outline>
</glyph>
<glyph name="eight" format="2">
  <advance width="685"/>
  <unicode hex="0038"/>
  <outline>
    <contour>
      <point x="518" y="683" type="line"/>
      <point x="368" y="720" type="line"/>
      <point x="186" y="699" type="line"/>
      <point x="89" y="579" type="line"/>
      <point x="130" y="417" type="line"/>
      <point x="410" y="266" type="line"/>
      <point x="480" y="173" type="line"/>
      <point x="455" y="79" type="line"/>
      <point x="367" y="38" type="line"/>
      <point x="245" y="100" type="line"/>
      <point x="208" y="256" type="line"/>
      <point x="239" y="331" type="line"/>
      <point x="322" y="393" type="line"/>
      <point x="297" y="394" type="line"/>
      <point x="128" y="319" type="line"/>
      <point x="64" y="217" type="line"/>
      <point x="128" y="49" type="line"/>
      <point x="343" y="-10" type="line"/>
      <point x="532" y="56" type="line"/>
      <point x="616" y="211" type="line"/>
      <point x="556" y="332" type="line"/>
      <point x="267" y="487" type="line"/>
      <point x="230" y="584" type="line"/>
      <point x="269" y="667" type="line"/>
      <point x="354" y="684" type="line"/>
      <point x="434" y="646" type="line"/>
      <point x="452" y="527" type="line"/>
      <point x="425" y="448" type="line"/>
      <point x="327" y="403" type="line"/>
      <point x="367" y="391" type="line"/>
      <point x="513" y="430" type="line"/>
      <point x="578" y="532" type="line"/>
    </contour>
  </outline>
</glyph>
<glyph name="nine" format="2">
  <advance width="620"/>
  <unicode hex="0039"/>
  <outline>
    <contour>
      <point x="482" y="352" type="line"/>
      <point x="472" y="385" type="line"/>
      <point x="349" y="331" type="line"/>
      <point x="231" y="359" type="line"/>
      <point x="165" y="474" type="line"/>
      <point x="165" y="607" type="line"/>
      <point x="239" y="668" type="line"/>
      <point x="341" y="652" type="line"/>
      <point x="424" y="513" type="line"/>
      <point x="421" y="272" type="line"/>
      <point x="357" y="136" type="line"/>
      <point x="288" y="61" type="line"/>
      <point x="138" y="24" type="line"/>
      <point x="148" y="-16" type="line"/>
      <point x="401" y="41" type="line"/>
      <point x="525" y="168" type="line"/>
      <point x="584" y="381" type="line"/>
      <point x="543" y="595" type="line"/>
      <point x="401" y="710" type="line"/>
      <point x="243" y="717" type="line"/>
      <point x="102" y="657" type="line"/>
      <point x="30" y="527" type="line"/>
      <point x="38" y="375" type="line"/>
      <point x="139" y="269" type="line"/>
      <point x="299" y="259" type="line"/>
    </contour>
  </outline>
</glyph>
<glyph name="question" format="2">
  <advance width="564"/>
  <unicode hex="003F"/>
  <outline>
    <contour>
      <point x="60" y="600" type="line"/>
      <point x="107" y="679" type="line"/>
      <point x="244" y="720" type="line"/>
      <point x="429" y="693" type="line"/>
      <point x="514" y="537" type="line"/>
      <point x="448" y="397" type="line"/>
      <point x="319" y="355" type="line"/>
      <point x="265" y="271" type="line"/>
      <point x="257" y="184" type="line"/>
      <point x="225" y="184" type="line"/>
      <point x="205" y="301" type="line"/>
      <point x="372" y="481" type="line"/>
      <point x="374" y="595" type="line"/>
      <point x="275" y="677" type="line"/>
      <point x="176" y="639" type="line"/>
      <point x="138" y="465" type="line"/>
      <point x="123" y="465" type="line"/>
    </contour>
    <component base="period" xOffset="100" yOffset="1"/>
  </outline>
</glyph>
<glyph name="at" format="2">
  <advance width="815"/>
  <unicode hex="0040"/>
  <outline>
    <contour>
      <point x="552" y="125" type="line"/>
      <point x="524" y="153" type="line"/>
      <point x="536" y="244" type="line"/>
      <point x="566" y="424" type="line"/>
      <point x="526" y="429" type="line"/>
      <point x="510" y="401" type="line"/>
      <point x="469" y="424" type="line"/>
      <point x="379" y="435" type="line"/>
      <point x="266" y="355" type="line"/>
      <point x="229" y="185" type="line"/>
      <point x="294" y="91" type="line"/>
      <point x="377" y="85" type="line"/>
      <point x="451" y="157" type="line"/>
      <point x="468" y="97" type="line"/>
      <point x="551" y="66" type="line"/>
      <point x="685" y="106" type="line"/>
      <point x="765" y="279" type="line"/>
      <point x="712" y="470" type="line"/>
      <point x="461" y="595" type="line"/>
      <point x="188" y="526" type="line"/>
      <point x="53" y="278" type="line"/>
      <point x="128" y="22" type="line"/>
      <point x="371" y="-97" type="line"/>
      <point x="623" y="-46" type="line"/>
      <point x="612" y="0" type="line"/>
      <point x="352" y="-16" type="line"/>
      <point x="181" y="105" type="line"/>
      <point x="149" y="311" type="line"/>
      <point x="267" y="494" type="line"/>
      <point x="479" y="522" type="line"/>
      <point x="666" y="392" type="line"/>
      <point x="680" y="256" type="line"/>
      <point x="605" y="125" type="line"/>
    </contour>
    <contour>
      <point x="475" y="333" type="line"/>
      <point x="452" y="235" type="line"/>
      <point x="388" y="154" type="line"/>
      <point x="352" y="165" type="line"/>
      <point x="320" y="236" type="line"/>
      <point x="322" y="333" type="line"/>
      <point x="371" y="387" type="line"/>
      <point x="430" y="390" type="line"/>
    </contour>
  </outline>
</glyph>
<glyph name="A" format="2">
  <advance width="775"/>
  <unicode hex="0041"/>
  <anchor x="383" y="0" name="bottom"/>
  <anchor x="679" y="10" name="ogonek"/>
  <anchor x="357" y="705" name="top"/>
  <outline>
    <contour>
      <point x="331" y="593" type="line"/>
      <point x="545" y="75" type="line"/>
      <point x="507" y="32" type="line"/>
      <point x="442" y="27" type="line"/>
      <point x="442" y="0" type="line"/>
      <point x="806" y="0" type="line"/>
      <point x="806" y="27" type="line"/>
      <point x="742" y="30" type="line"/>
      <point x="701" y="75" type="line"/>
      <point x="437" y="705" type="line"/>
      <point x="183" y="705" type="line"/>
      <point x="183" y="678" type="line"/>
      <point x="259" y="675" type="line"/>
      <point x="303" y="640" type="line"/>
      <point x="61" y="75" type="line"/>
      <point x="19" y="30" type="line"/>
      <point x="-45" y="27" type="line"/>
      <point x="-45" y="0" type="line"/>
      <point x="207" y="0" type="line"/>
      <point x="207" y="27" type="line"/>
      <point x="151" y="30" type="line"/>
      <point x="127" y="100" type="line"/>
    </contour>
    <contour>
      <point x="189" y="311" type="line"/>
      <point x="189" y="265" type="line"/>
      <point x="529" y="265" type="line"/>
      <point x="529" y="311" type="line"/>
    </contour>
  </outline>
</glyph>
<glyph name="B" format="2">
  <advance width="721"/>
  <unicode hex="0042"/>
  <anchor x="354" y="0" name="bottom"/>
  <anchor x="354" y="700" name="top"/>
  <outline>
    <contour>
      <point x="491" y="705" type="line"/>
      <point x="25" y="705" type="line"/>
      <point x="25" y="678" type="line"/>
      <point x="79" y="675" type="line"/>
      <point x="122" y="630" type="line"/>
      <point x="122" y="75" type="line"/>
      <point x="79" y="30" type="line"/>
      <point x="25" y="27" type="line"/>
      <point x="25" y="0" type="line"/>
      <point x="492" y="0" type="line"/>
      <point x="632" y="76" type="line"/>
      <point x="671" y="200" type="line"/>
      <point x="596" y="339" type="line"/>
      <point x="464" y="386" type="line"/>
      <point x="587" y="422" type="line"/>
      <point x="637" y="544" type="line"/>
      <point x="591" y="653" type="line"/>
    </contour>
    <contour>
      <point x="271" y="65" type="line"/>
      <point x="271" y="361" type="line"/>
      <point x="418" y="361" type="line"/>
      <point x="501" y="255" type="line"/>
      <point x="511" y="124" type="line"/>
      <point x="443" y="35" type="line"/>
      <point x="302" y="35" type="line"/>
    </contour>
    <contour>
      <point x="271" y="404" type="line"/>
      <point x="271" y="650" type="line"/>
      <point x="302" y="675" type="line"/>
      <point x="423" y="662" type="line"/>
      <point x="477" y="597" type="line"/>
      <point x="482" y="485" type="line"/>
      <point x="398" y="404" type="line"/>
    </contour>
  </outline>
</glyph>
<glyph name="C" format="2">
  <advance width="749"/>
  <unicode hex="0043"/>
  <anchor x="424" y="0" name="bottom"/>
  <anchor x="414" y="700" name="top"/>
  <outline>
    <contour>
      <point x="692" y="654" type="line"/>
      <point x="504" y="719" type="line"/>
      <point x="224" y="666" type="line"/>
      <point x="50" y="463" type="line"/>
      <point x="99" y="149" type="line"/>
      <point x="329" y="-13" type="line"/>
      <point x="569" y="6" type="line"/>
      <point x="694" y="140" type="line"/>
      <point x="709" y="246" type="line"/>
      <point x="680" y="249" type="line"/>
      <point x="609" y="117" type="line"/>
      <point x="447" y="71" type="line"/>
      <point x="293" y="162" type="line"/>
      <point x="223" y="373" type="line"/>
      <point x="257" y="592" type="line"/>
      <point x="394" y="658" type="line"/>
      <point x="589" y="612" type="line"/>
      <point x="656" y="467" type="line"/>
      <point x="681" y="467" type="line"/>
    </contour>
  </outline>
</glyph>
<glyph name="D" format="2">
  <advance width="809"/>
  <unicode hex="0044"/>
  <anchor x="392" y="0" name="bottom"/>
  <anchor x="392" y="350" name="center"/>
  <anchor x="362" y="700" name="top"/>
  <outline>
    <contour>
      <point x="516" y="705" type="line"/>
      <point x="25" y="705" type="line"/>
      <point x="25" y="678" type="line"/>
      <point x="79" y="675" type="line"/>
      <point x="122" y="630" type="line"/>
      <point x="122" y="75" type="line"/>
      <point x="79" y="30" type="line"/>
      <point x="25" y="27" type="line"/>
      <point x="25" y="0" type="line"/>
      <point x="474" y="0" type="line"/>
      <point x="679" y="117" type="line"/>
      <point x="759" y="370" type="line"/>
      <point x="698" y="569" type="line"/>
    </contour>
    <contour>
      <point x="269" y="61" type="line"/>
      <point x="269" y="641" type="line"/>
      <point x="379" y="661" type="line"/>
      <point x="507" y="611" type="line"/>
      <point x="583" y="485" type="line"/>
      <point x="583" y="264" type="line"/>
      <point x="507" y="91" type="line"/>
      <point x="379" y="41" type="line"/>
    </contour>
  </outline>
</glyph>
<glyph name="E" format="2">
  <advance width="736"/>
  <unicode hex="0045"/>
  <anchor x="428" y="0" name="bottom"/>
  <anchor x="555" y="0" name="ogonek"/>
  <anchor x="368" y="705" name="top"/>
  <anchor x="129" y="700" name="topleft"/>
  <outline>
    <contour>
      <point x="627" y="705" type="line"/>
      <point x="25" y="705" type="line"/>
      <point x="25" y="678" type="line"/>
      <point x="79" y="675" type="line"/>
      <point x="122" y="630" type="line"/>
      <point x="122" y="75" type="line"/>
      <point x="79" y="30" type="line"/>
      <point x="25" y="27" type="line"/>
      <point x="25" y="0" type="line"/>
      <point x="646" y="0" type="line"/>
      <point x="686" y="228" type="line"/>
      <point x="661" y="228" type="line"/>
      <point x="573" y="67" type="line"/>
      <point x="523" y="40" type="line"/>
      <point x="301" y="38" type="line"/>
      <point x="265" y="72" type="line"/>
      <point x="265" y="337" type="line"/>
      <point x="458" y="336" type="line"/>
      <point x="508" y="304" type="line"/>
      <point x="536" y="220" type="line"/>
      <point x="559" y="220" type="line"/>
      <point x="559" y="497" type="line"/>
      <point x="536" y="497" type="line"/>
      <point x="508" y="413" type="line"/>
      <point x="456" y="382" type="line"/>
      <point x="456" y="381" type="line"/>
      <point x="265" y="380" type="line"/>
      <point x="265" y="639" type="line"/>
      <point x="301" y="673" type="line"/>
      <point x="504" y="671" type="line"/>
      <point x="554" y="625" type="line"/>
      <point x="633" y="476" type="line"/>
      <point x="658" y="476" type="line"/>
    </contour>
  </outline>
</glyph>
<glyph name="F" format="2">
  <advance width="695"/>
  <unicode hex="0046"/>
  <anchor x="381" y="0" name="bottom"/>
  <anchor x="381" y="700" name="top"/>
  <outline>
    <contour>
      <point x="264" y="323" type="line"/>
      <point x="457" y="322" type="line"/>
      <point x="507" y="290" type="line"/>
      <point x="535" y="206" type="line"/>
      <point x="558" y="206" type="line"/>
      <point x="558" y="483" type="line"/>
      <point x="535" y="483" type="line"/>
      <point x="507" y="399" type="line"/>
      <point x="455" y="368" type="line"/>
      <point x="455" y="367" type="line"/>
      <point x="264" y="366" type="line"/>
      <point x="264" y="624" type="line"/>
      <point x="300" y="668" type="line"/>
      <point x="503" y="666" type="line"/>
      <point x="563" y="629" type="line"/>
      <point x="630" y="463" type="line"/>
      <point x="655" y="463" type="line"/>
      <point x="626" y="705" type="line"/>
      <point x="25" y="705" type="line"/>
      <point x="25" y="678" type="line"/>
      <point x="79" y="675" type="line"/>
      <point x="122" y="630" type="line"/>
      <point x="122" y="76" type="line"/>
      <point x="79" y="31" type="line"/>
      <point x="25" y="28" type="line"/>
      <point x="25" y="1" type="line"/>
      <point x="391" y="1" type="line"/>
      <point x="391" y="28" type="line"/>
      <point x="317" y="31" type="line"/>
      <point x="264" y="76" type="line"/>
    </contour>
  </outline>
</glyph>
<glyph name="G" format="2">
  <advance width="814"/>
  <unicode hex="0047"/>
  <anchor x="430" y="0" name="bottom"/>
  <anchor x="420" y="700" name="top"/>
  <outline>
    <contour>
      <point x="50" y="410" type="line"/>
      <point x="193" y="668" type="line"/>
      <point x="485" y="720" type="line"/>
      <point x="691" y="661" type="line"/>
      <point x="690" y="442" type="line"/>
      <point x="666" y="442" type="line"/>
      <point x="588" y="619" type="line"/>
      <point x="383" y="665" type="line"/>
      <point x="245" y="589" type="line"/>
      <point x="224" y="360" type="line"/>
      <point x="294" y="159" type="line"/>
      <point x="433" y="65" type="line"/>
      <point x="553" y="91" type="line"/>
      <point x="593" y="190" type="line"/>
      <point x="593" y="273" type="line"/>
      <point x="456" y="281" type="line"/>
      <point x="456" y="313" type="line"/>
      <point x="784" y="313" type="line"/>
      <point x="784" y="291" type="line"/>
      <point x="740" y="288" type="line"/>
      <point x="707" y="243" type="line"/>
      <point x="708" y="243" type="line"/>
      <point x="708" y="0" type="line"/>
      <point x="677" y="0" type="line"/>
      <point x="626" y="118" type="line"/>
      <point x="526" y="7" type="line"/>
      <point x="333" y="-14" type="line"/>
      <point x="109" y="139" type="line"/>
    </contour>
  </outline>
</glyph>
<glyph name="H" format="2">
  <advance width="873"/>
  <unicode hex="0048"/>
  <anchor x="437" y="0" name="bottom"/>
  <anchor x="437" y="350" name="center"/>
  <anchor x="437" y="705" name="top"/>
  <anchor x="56" y="705" name="topleft"/>
  <outline>
    <contour>
      <point x="362" y="705" type="line"/>
      <point x="25" y="705" type="line"/>
      <point x="25" y="678" type="line"/>
      <point x="79" y="675" type="line"/>
      <point x="122" y="630" type="line"/>
      <point x="122" y="75" type="line"/>
      <point x="79" y="30" type="line"/>
      <point x="25" y="27" type="line"/>
      <point x="25" y="0" type="line"/>
      <point x="362" y="0" type="line"/>
      <point x="362" y="27" type="line"/>
      <point x="308" y="30" type="line"/>
      <point x="265" y="75" type="line"/>
      <point x="265" y="630" type="line"/>
      <point x="308" y="675" type="line"/>
      <point x="362" y="678" type="line"/>
    </contour>
    <contour>
      <point x="848" y="705" type="line"/>
      <point x="511" y="705" type="line"/>
      <point x="511" y="678" type="line"/>
      <point x="565" y="675" type="line"/>
      <point x="608" y="630" type="line"/>
      <point x="608" y="75" type="line"/>
      <point x="565" y="30" type="line"/>
      <point x="511" y="27" type="line"/>
      <point x="511" y="0" type="line"/>
      <point x="848" y="0" type="line"/>
      <point x="848" y="27" type="line"/>
      <point x="794" y="30" type="line"/>
      <point x="751" y="75" type="line"/>
      <point x="751" y="630" type="line"/>
      <point x="794" y="675" type="line"/>
      <point x="848" y="678" type="line"/>
    </contour>
    <contour>
      <point x="240" y="386" type="line"/>
      <point x="240" y="342" type="line"/>
      <point x="651" y="342" type="line"/>
      <point x="651" y="386" type="line"/>
    </contour>
  </outline>
</glyph>
<glyph name="I" format="2">
  <advance width="389"/>
  <unicode hex="0049"/>
  <anchor x="186" y="0" name="bottom"/>
  <anchor x="228" y="2" name="ogonek"/>
  <anchor x="202" y="705" name="top"/>
  <anchor x="27" y="700" name="topleft"/>
  <outline>
    <contour>
      <point x="364" y="705" type="line"/>
      <point x="25" y="705" type="line"/>
      <point x="25" y="678" type="line"/>
      <point x="81" y="675" type="line"/>
      <point x="122" y="630" type="line"/>
      <point x="122" y="75" type="line"/>
      <point x="82" y="30" type="line"/>
      <point x="25" y="27" type="line"/>
      <point x="25" y="0" type="line"/>
      <point x="364" y="0" type="line"/>
      <point x="364" y="27" type="line"/>
      <point x="307" y="30" type="line"/>
      <point x="266" y="75" type="line"/>
      <point x="266" y="630" type="line"/>
      <point x="307" y="675" type="line"/>
      <point x="364" y="678" type="line"/>
    </contour>
  </outline>
</glyph>
<glyph name="J" format="2">
  <advance width="422"/>
  <unicode hex="004A"/>
  <anchor x="205" y="0" name="bottom"/>
  <anchor x="225" y="705" name="top"/>
  <outline>
    <contour>
      <point x="295" y="630" type="line"/>
      <point x="335" y="675" type="line"/>
      <point x="392" y="678" type="line"/>
      <point x="392" y="705" type="line"/>
      <point x="35" y="705" type="line"/>
      <point x="35" y="678" type="line"/>
      <point x="102" y="675" type="line"/>
      <point x="145" y="630" type="line"/>
      <point x="145" y="70" type="line"/>
      <point x="120" y="-70" type="line"/>
      <point x="6" y="-144" type="line"/>
      <point x="18" y="-171" type="line"/>
      <point x="211" y="-76" type="line"/>
      <point x="295" y="61" type="line"/>
    </contour>
  </outline>
</glyph>
<glyph name="K" format="2">
  <advance width="753"/>
  <unicode hex="004B"/>
  <anchor x="433" y="0" name="bottom"/>
  <anchor x="339" y="10" name="ogonek"/>
  <anchor x="390" y="704" name="top"/>
  <anchor x="37" y="705" name="topleft"/>
  <outline>
    <contour>
      <point x="364" y="705" type="line"/>
      <point x="25" y="705" type="line"/>
      <point x="25" y="678" type="line"/>
      <point x="81" y="675" type="line"/>
      <point x="122" y="630" type="line"/>
      <point x="122" y="75" type="line"/>
      <point x="82" y="30" type="line"/>
      <point x="25" y="27" type="line"/>
      <point x="25" y="0" type="line"/>
      <point x="364" y="0" type="line"/>
      <point x="364" y="27" type="line"/>
      <point x="307" y="30" type="line"/>
      <point x="266" y="75" type="line"/>
      <point x="266" y="630" type="line"/>
      <point x="307" y="675" type="line"/>
      <point x="364" y="678" type="line"/>
    </contour>
    <contour>
      <point x="400" y="428" type="line"/>
      <point x="300" y="349" type="line"/>
      <point x="558" y="0" type="line"/>
      <point x="783" y="0" type="line"/>
      <point x="783" y="22" type="line"/>
      <point x="709" y="31" type="line"/>
      <point x="658" y="81" type="line"/>
    </contour>
    <contour>
      <point x="202" y="293" type="line"/>
      <point x="230" y="257" type="line"/>
      <point x="638" y="644" type="line"/>
      <point x="683" y="675" type="line"/>
      <point x="746" y="678" type="line"/>
      <point x="746" y="705" type="line"/>
      <point x="430" y="705" type="line"/>
      <point x="430" y="678" type="line"/>
      <point x="524" y="675" type="line"/>
      <point x="524" y="600" type="line"/>
    </contour>
  </outline>
</glyph>
<glyph name="L" format="2">
  <advance width="675"/>
  <unicode hex="004C"/>
  <anchor x="342" y="0" name="bottom"/>
  <anchor x="342" y="353" name="center"/>
  <anchor x="219" y="705" name="top"/>
  <anchor x="465" y="461" name="topright"/>
  <outline>
    <contour>
      <point x="388" y="705" type="line"/>
      <point x="25" y="705" type="line"/>
      <point x="25" y="678" type="line"/>
      <point x="82" y="675" type="line"/>
      <point x="122" y="630" type="line"/>
      <point x="122" y="75" type="line"/>
      <point x="82" y="30" type="line"/>
      <point x="25" y="27" type="line"/>
      <point x="25" y="0" type="line"/>
      <point x="618" y="0" type="line"/>
      <point x="660" y="252" type="line"/>
      <point x="635" y="252" type="line"/>
      <point x="555" y="75" type="line"/>
      <point x="497" y="37" type="line"/>
      <point x="300" y="37" type="line"/>
      <point x="265" y="80" type="line"/>
      <point x="265" y="630" type="line"/>
      <point x="315" y="675" type="line"/>
      <point x="388" y="678" type="line"/>
    </contour>
  </outline>
</glyph>
<glyph name="M" format="2">
  <advance width="973"/>
  <unicode hex="004D"/>
  <anchor x="462" y="0" name="bottom"/>
  <anchor x="494" y="705" name="top"/>
  <outline>
    <contour>
      <point x="948" y="705" type="line"/>
      <point x="701" y="705" type="line"/>
      <point x="495" y="212" type="line"/>
      <point x="290" y="705" type="line"/>
      <point x="25" y="705" type="line"/>
      <point x="25" y="678" type="line"/>
      <point x="78" y="675" type="line"/>
      <point x="122" y="635" type="line"/>
      <point x="124" y="94" type="line"/>
      <point x="86" y="30" type="line"/>
      <point x="27" y="27" type="line"/>
      <point x="27" y="0" type="line"/>
      <point x="276" y="0" type="line"/>
      <point x="276" y="27" type="line"/>
      <point x="216" y="30" type="line"/>
      <point x="179" y="95" type="line"/>
      <point x="177" y="609" type="line"/>
      <point x="439" y="0" type="line"/>
      <point x="488" y="0" type="line"/>
      <point x="711" y="609" type="line"/>
      <point x="711" y="75" type="line"/>
      <point x="670" y="30" type="line"/>
      <point x="613" y="27" type="line"/>
      <point x="613" y="0" type="line"/>
      <point x="948" y="0" type="line"/>
      <point x="948" y="27" type="line"/>
      <point x="891" y="30" type="line"/>
      <point x="851" y="75" type="line"/>
      <point x="851" y="635" type="line"/>
      <point x="891" y="675" type="line"/>
      <point x="948" y="678" type="line"/>
    </contour>
  </outline>
</glyph>
<glyph name="N" format="2">
  <advance width="802"/>
  <unicode hex="004E"/>
  <anchor x="382" y="0" name="bottom"/>
  <anchor x="391" y="705" name="top"/>
  <outline>
    <contour>
      <point x="252" y="705" type="line"/>
      <point x="25" y="705" type="line"/>
      <point x="25" y="678" type="line"/>
      <point x="78" y="675" type="line"/>
      <point x="121" y="635" type="line"/>
      <point x="122" y="85" type="line"/>
      <point x="82" y="30" type="line"/>
      <point x="25" y="27" type="line"/>
      <point x="25" y="0" type="line"/>
      <point x="274" y="0" type="line"/>
      <point x="274" y="27" type="line"/>
      <point x="215" y="30" type="line"/>
      <point x="177" y="85" type="line"/>
      <point x="176" y="562" type="line"/>
      <point x="610" y="0" type="line"/>
      <point x="680" y="0" type="line"/>
      <point x="680" y="622" type="line"/>
      <point x="718" y="675" type="line"/>
      <point x="777" y="678" type="line"/>
      <point x="777" y="705" type="line"/>
      <point x="529" y="705" type="line"/>
      <point x="529" y="678" type="line"/>
      <point x="590" y="675" type="line"/>
      <point x="626" y="620" type="line"/>
      <point x="626" y="225" type="line"/>
    </contour>
    <contour>
      <point x="122" y="0" type="move"/>
    </contour>
  </outline>
</glyph>
<glyph name="O" format="2">
  <advance width="860"/>
  <unicode hex="004F"/>
  <anchor x="445" y="0" name="bottom"/>
  <anchor x="445" y="350" name="center"/>
  <anchor x="768" y="10" name="ogonek"/>
  <anchor x="434" y="705" name="top"/>
  <anchor x="61" y="705" name="topleft"/>
  <anchor x="829" y="705" name="topright"/>
  <outline>
    <contour>
      <point x="546" y="0" type="line"/>
      <point x="739" y="117" type="line"/>
      <point x="810" y="353" type="line"/>
      <point x="739" y="589" type="line"/>
      <point x="546" y="705" type="line"/>
      <point x="314" y="705" type="line"/>
      <point x="121" y="589" type="line"/>
      <point x="50" y="353" type="line"/>
      <point x="121" y="117" type="line"/>
      <point x="314" y="0" type="line"/>
    </contour>
    <contour>
      <point x="430" y="43" type="line"/>
      <point x="307" y="65" type="line"/>
      <point x="231" y="266" type="line"/>
      <point x="231" y="467" type="line"/>
      <point x="307" y="641" type="line"/>
      <point x="430" y="663" type="line"/>
      <point x="553" y="641" type="line"/>
      <point x="629" y="467" type="line"/>
      <point x="629" y="266" type="line"/>
      <point x="553" y="65" type="line"/>
    </contour>
  </outline>
</glyph>
<glyph name="P" format="2">
  <advance width="669"/>
  <unicode hex="0050"/>
  <outline>
    <contour>
      <point x="469" y="705" type="line"/>
      <point x="25" y="705" type="line"/>
      <point x="25" y="678" type="line"/>
      <point x="82" y="675" type="line"/>
      <point x="122" y="635" type="line"/>
      <point x="122" y="75" type="line"/>
      <point x="121" y="75" type="line"/>
      <point x="81" y="30" type="line"/>
      <point x="25" y="27" type="line"/>
      <point x="25" y="0" type="line"/>
      <point x="401" y="0" type="line"/>
      <point x="401" y="27" type="line"/>
      <point x="309" y="30" type="line"/>
      <point x="266" y="75" type="line"/>
      <point x="266" y="296" type="line"/>
      <point x="421" y="289" type="line"/>
      <point x="555" y="342" type="line"/>
      <point x="629" y="492" type="line"/>
      <point x="575" y="637" type="line"/>
    </contour>
    <contour>
      <point x="266" y="372" type="line"/>
      <point x="266" y="640" type="line"/>
      <point x="297" y="670" type="line"/>
      <point x="411" y="654" type="line"/>
      <point x="475" y="568" type="line"/>
      <point x="486" y="442" type="line"/>
      <point x="443" y="359" type="line"/>
      <point x="351" y="324" type="line"/>
    </contour>
  </outline>
</glyph>
<glyph name="Q" format="2">
  <advance width="846"/>
  <unicode hex="0051"/>
  <anchor x="400" y="0" name="bottom"/>
  <anchor x="400" y="700" name="top"/>
  <outline>
    <contour>
      <point x="781" y="-137" type="line"/>
      <point x="781" y="-106" type="line"/>
      <point x="672" y="-100" type="line"/>
      <point x="555" y="-61" type="line"/>
      <point x="505" y="15" type="line"/>
      <point x="337" y="14" type="line"/>
      <point x="453" y="-97" type="line"/>
      <point x="618" y="-137" type="line"/>
    </contour>
    <component base="O"/>
  </outline>
</glyph>
<glyph name="R" format="2">
  <advance width="734"/>
  <unicode hex="0052"/>
  <anchor x="371" y="0" name="bottom"/>
  <anchor x="371" y="700" name="top"/>
  <outline>
    <contour>
      <point x="467" y="705" type="line"/>
      <point x="25" y="705" type="line"/>
      <point x="25" y="678" type="line"/>
      <point x="82" y="675" type="line"/>
      <point x="122" y="635" type="line"/>
      <point x="122" y="70" type="line"/>
      <point x="82" y="30" type="line"/>
      <point x="25" y="27" type="line"/>
      <point x="25" y="0" type="line"/>
      <point x="365" y="0" type="line"/>
      <point x="365" y="27" type="line"/>
      <point x="299" y="30" type="line"/>
      <point x="266" y="70" type="line"/>
      <point x="266" y="317" type="line"/>
      <point x="346" y="317" type="line"/>
      <point x="480" y="38" type="line"/>
      <point x="524" y="0" type="line"/>
      <point x="734" y="0" type="line"/>
      <point x="734" y="22" type="line"/>
      <point x="686" y="26" type="line"/>
      <point x="629" y="70" type="line"/>
      <point x="494" y="291" type="line"/>
      <point x="445" y="325" type="line"/>
      <point x="556" y="354" type="line"/>
      <point x="635" y="499" type="line"/>
      <point x="583" y="647" type="line"/>
    </contour>
    <contour>
      <point x="266" y="399" type="line"/>
      <point x="266" y="640" type="line"/>
      <point x="297" y="670" type="line"/>
      <point x="389" y="664" type="line"/>
      <point x="468" y="588" type="line"/>
      <point x="489" y="479" type="line"/>
      <point x="447" y="386" type="line"/>
      <point x="361" y="351" type="line"/>
    </contour>
  </outline>
</glyph>
<glyph name="S" format="2">
  <advance width="670"/>
  <unicode hex="0053"/>
  <anchor x="338" y="0" name="bottom"/>
  <anchor x="338" y="700" name="top"/>
  <outline>
    <contour>
      <point x="588" y="646" type="line"/>
      <point x="424" y="720" type="line"/>
      <point x="174" y="712" type="line"/>
      <point x="42" y="568" type="line"/>
      <point x="87" y="388" type="line"/>
      <point x="455" y="211" type="line"/>
      <point x="487" y="135" type="line"/>
      <point x="447" y="61" type="line"/>
      <point x="378" y="35" type="line"/>
      <point x="291" y="35" type="line"/>
      <point x="193" y="91" type="line"/>
      <point x="131" y="291" type="line"/>
      <point x="100" y="292" type="line"/>
      <point x="59" y="83" type="line"/>
      <point x="182" y="17" type="line"/>
      <point x="379" y="-12" type="line"/>
      <point x="566" y="71" type="line"/>
      <point x="616" y="245" type="line"/>
      <point x="543" y="346" type="line"/>
      <point x="246" y="482" type="line"/>
      <point x="205" y="561" type="line"/>
      <point x="232" y="650" type="line"/>
      <point x="320" y="686" type="line"/>
      <point x="424" y="667" type="line"/>
      <point x="482" y="606" type="line"/>
      <point x="517" y="456" type="line"/>
      <point x="547" y="456" type="line"/>
    </contour>
  </outline>
</glyph>
<glyph name="T" format="2">
  <advance width="695"/>
  <unicode hex="0054"/>
  <anchor x="348" y="0" name="bottom"/>
  <anchor x="348" y="350" name="center"/>
  <anchor x="348" y="700" name="top"/>
  <outline>
    <contour>
      <point x="658" y="705" type="line"/>
      <point x="37" y="705" type="line"/>
      <point x="6" y="451" type="line"/>
      <point x="33" y="451" type="line"/>
      <point x="98" y="630" type="line"/>
      <point x="156" y="670" type="line"/>
      <point x="272" y="670" type="line"/>
      <point x="272" y="70" type="line"/>
      <point x="229" y="25" type="line"/>
      <point x="159" y="22" type="line"/>
      <point x="159" y="0" type="line"/>
      <point x="535" y="0" type="line"/>
      <point x="535" y="22" type="line"/>
      <point x="465" y="25" type="line"/>
      <point x="422" y="70" type="line"/>
      <point x="422" y="670" type="line"/>
      <point x="539" y="670" type="line"/>
      <point x="597" y="630" type="line"/>
      <point x="662" y="451" type="line"/>
      <point x="689" y="451" type="line"/>
    </contour>
  </outline>
</glyph>
<glyph name="U" format="2">
  <advance width="782"/>
  <unicode hex="0055"/>
  <anchor x="392" y="0" name="bottom"/>
  <anchor x="568" y="40" name="ogonek"/>
  <anchor x="405" y="705" name="top"/>
  <anchor x="733" y="700" name="topright"/>
  <outline>
    <contour>
      <point x="409" y="-12" type="line"/>
      <point x="585" y="50" type="line"/>
      <point x="663" y="211" type="line"/>
      <point x="663" y="635" type="line"/>
      <point x="709" y="675" type="line"/>
      <point x="766" y="678" type="line"/>
      <point x="766" y="705" type="line"/>
      <point x="493" y="705" type="line"/>
      <point x="493" y="678" type="line"/>
      <point x="560" y="675" type="line"/>
      <point x="603" y="635" type="line"/>
      <point x="603" y="209" type="line"/>
      <point x="512" y="75" type="line"/>
      <point x="337" y="79" type="line"/>
      <point x="240" y="214" type="line"/>
      <point x="240" y="635" type="line"/>
      <point x="283" y="675" type="line"/>
      <point x="348" y="678" type="line"/>
      <point x="348" y="705" type="line"/>
      <point x="-10" y="705" type="line"/>
      <point x="-10" y="678" type="line"/>
      <point x="53" y="675" type="line"/>
      <point x="90" y="635" type="line"/>
      <point x="90" y="195" type="line"/>
      <point x="181" y="41" type="line"/>
    </contour>
  </outline>
</glyph>
<glyph name="V" format="2">
  <advance width="676"/>
  <unicode hex="0056"/>
  <anchor x="339" y="0" name="bottom"/>
  <anchor x="339" y="705" name="top"/>
  <outline>
    <contour>
      <point x="307" y="705" type="line"/>
      <point x="-59" y="705" type="line"/>
      <point x="-59" y="678" type="line"/>
      <point x="2" y="674" type="line"/>
      <point x="40" y="635" type="line"/>
      <point x="331" y="0" type="line"/>
      <point x="384" y="0" type="line"/>
      <point x="631" y="636" type="line"/>
      <point x="673" y="674" type="line"/>
      <point x="727" y="678" type="line"/>
      <point x="727" y="705" type="line"/>
      <point x="467" y="705" type="line"/>
      <point x="467" y="678" type="line"/>
      <point x="551" y="674" type="line"/>
      <point x="551" y="592" type="line"/>
      <point x="396" y="192" type="line"/>
      <point x="203" y="639" type="line"/>
      <point x="233" y="674" type="line"/>
      <point x="307" y="678" type="line"/>
    </contour>
  </outline>
</glyph>
<glyph name="W" format="2">
  <advance width="1072"/>
  <unicode hex="0057"/>
  <anchor x="533" y="0" name="bottom"/>
  <anchor x="553" y="705" name="top"/>
  <outline>
    <contour>
      <point x="547" y="513" type="line"/>
      <point x="529" y="592" type="line"/>
      <point x="373" y="159" type="line"/>
      <point x="213" y="632" type="line"/>
      <point x="249" y="675" type="line"/>
      <point x="319" y="679" type="line"/>
      <point x="319" y="705" type="line"/>
      <point x="-36" y="705" type="line"/>
      <point x="-36" y="679" type="line"/>
      <point x="28" y="675" type="line"/>
      <point x="66" y="637" type="line"/>
      <point x="287" y="0" type="line"/>
      <point x="377" y="0" type="line"/>
    </contour>
    <contour>
      <point x="488" y="648" type="line"/>
      <point x="711" y="0" type="line"/>
      <point x="801" y="0" type="line"/>
      <point x="995" y="647" type="line"/>
      <point x="1031" y="675" type="line"/>
      <point x="1092" y="679" type="line"/>
      <point x="1092" y="705" type="line"/>
      <point x="843" y="705" type="line"/>
      <point x="843" y="679" type="line"/>
      <point x="905" y="675" type="line"/>
      <point x="932" y="619" type="line"/>
      <point x="798" y="159" type="line"/>
      <point x="625" y="653" type="line"/>
      <point x="645" y="675" type="line"/>
      <point x="720" y="679" type="line"/>
      <point x="720" y="705" type="line"/>
      <point x="383" y="705" type="line"/>
      <point x="383" y="679" type="line"/>
      <point x="445" y="675" type="line"/>
    </contour>
  </outline>
</glyph>
<glyph name="X" format="2">
  <advance width="746"/>
  <unicode hex="0058"/>
  <anchor x="379" y="0" name="bottom"/>
  <anchor x="379" y="705" name="top"/>
  <outline>
    <contour>
      <point x="246" y="635" type="line"/>
      <point x="279" y="675" type="line"/>
      <point x="353" y="678" type="line"/>
      <point x="353" y="705" type="line"/>
      <point x="-53" y="705" type="line"/>
      <point x="-53" y="678" type="line"/>
      <point x="17" y="671" type="line"/>
      <point x="63" y="636" type="line"/>
      <point x="485" y="70" type="line"/>
      <point x="448" y="30" type="line"/>
      <point x="374" y="27" type="line"/>
      <point x="374" y="0" type="line"/>
      <point x="785" y="0" type="line"/>
      <point x="785" y="27" type="line"/>
      <point x="711" y="35" type="line"/>
      <point x="665" y="69" type="line"/>
    </contour>
    <contour>
      <point x="383" y="344" type="line"/>
      <point x="323" y="344" type="line"/>
      <point x="92" y="67" type="line"/>
      <point x="41" y="30" type="line"/>
      <point x="-33" y="27" type="line"/>
      <point x="-33" y="0" type="line"/>
      <point x="242" y="0" type="line"/>
      <point x="242" y="27" type="line"/>
      <point x="168" y="30" type="line"/>
      <point x="168" y="69" type="line"/>
    </contour>
    <contour>
      <point x="367" y="374" type="line"/>
      <point x="427" y="374" type="line"/>
      <point x="643" y="648" type="line"/>
      <point x="673" y="675" type="line"/>
      <point x="743" y="678" type="line"/>
      <point x="743" y="705" type="line"/>
      <point x="484" y="705" type="line"/>
      <point x="484" y="678" type="line"/>
      <point x="558" y="675" type="line"/>
      <point x="558" y="635" type="line"/>
    </contour>
  </outline>
</glyph>
<glyph name="Y" format="2">
  <advance width="662"/>
  <unicode hex="0059"/>
  <anchor x="337" y="0" name="bottom"/>
  <anchor x="396" y="705" name="top"/>
  <anchor x="13" y="700" name="topleft"/>
  <outline>
    <contour>
      <point x="327" y="705" type="line"/>
      <point x="-49" y="705" type="line"/>
      <point x="-49" y="678" type="line"/>
      <point x="25" y="675" type="line"/>
      <point x="58" y="635" type="line"/>
      <point x="277" y="322" type="line"/>
      <point x="277" y="70" type="line"/>
      <point x="234" y="30" type="line"/>
      <point x="177" y="27" type="line"/>
      <point x="177" y="0" type="line"/>
      <point x="525" y="0" type="line"/>
      <point x="525" y="27" type="line"/>
      <point x="465" y="30" type="line"/>
      <point x="422" y="70" type="line"/>
      <point x="422" y="319" type="line"/>
      <point x="602" y="629" type="line"/>
      <point x="653" y="675" type="line"/>
      <point x="718" y="678" type="line"/>
      <point x="718" y="705" type="line"/>
      <point x="456" y="705" type="line"/>
      <point x="456" y="678" type="line"/>
      <point x="547" y="675" type="line"/>
      <point x="554" y="630" type="line"/>
      <point x="396" y="369" type="line"/>
      <point x="202" y="652" type="line"/>
      <point x="223" y="675" type="line"/>
      <point x="327" y="678" type="line"/>
    </contour>
  </outline>
</glyph>
<glyph name="Z" format="2">
  <advance width="707"/>
  <unicode hex="005A"/>
  <anchor x="356" y="0" name="bottom"/>
  <anchor x="356" y="353" name="center"/>
  <anchor x="376" y="705" name="top"/>
  <outline>
    <contour>
      <point x="34" y="19" type="line"/>
      <point x="483" y="665" type="line"/>
      <point x="229" y="665" type="line"/>
      <point x="147" y="634" type="line"/>
      <point x="85" y="463" type="line"/>
      <point x="53" y="463" type="line"/>
      <point x="75" y="705" type="line"/>
      <point x="75" y="706" type="line"/>
      <point x="662" y="705" type="line"/>
      <point x="673" y="690" type="line"/>
      <point x="223" y="42" type="line"/>
      <point x="508" y="42" type="line"/>
      <point x="587" y="79" type="line"/>
      <point x="642" y="243" type="line"/>
      <point x="675" y="243" type="line"/>
      <point x="645" y="0" type="line"/>
      <point x="45" y="0" type="line"/>
    </contour>
  </outline>
</glyph>
<glyph name="bracketleft" format="2">
  <advance width="344"/>
  <unicode hex="005B"/>
  <outline>
    <contour>
      <point x="333" y="736" type="line"/>
      <point x="75" y="736" type="line"/>
      <point x="75" y="-216" type="line"/>
      <point x="76" y="-216" type="line"/>
      <point x="76" y="-220" type="line"/>
      <point x="334" y="-220" type="line"/>
      <point x="334" y="-193" type="line"/>
      <point x="200" y="-193" type="line"/>
      <point x="200" y="709" type="line"/>
      <point x="333" y="709" type="line"/>
    </contour>
  </outline>
</glyph>
<glyph name="underscore" format="2">
  <advance width="500"/>
  <unicode hex="005F"/>
  <outline>
    <contour>
      <point x="20" y="-72" type="line"/>
      <point x="20" y="-122" type="line"/>
      <point x="480" y="-122" type="line"/>
      <point x="480" y="-72" type="line"/>
    </contour>
  </outline>
</glyph>
<glyph name="a" format="2">
  <advance width="616"/>
  <unicode hex="0061"/>
  <anchor x="307" y="0" name="bottom"/>
  <anchor x="492" y="-3" name="ogonek"/>
  <anchor x="317" y="505" name="top"/>
  <outline>
    <contour>
      <point x="366" y="0" type="line"/>
      <point x="605" y="0" type="line"/>
      <point x="605" y="27" type="line"/>
      <point x="535" y="32" type="line"/>
      <point x="503" y="68" type="line"/>
      <point x="503" y="373" type="line"/>
      <point x="432" y="489" type="line"/>
      <point x="245" y="514" type="line"/>
      <point x="68" y="434" type="line"/>
      <point x="140" y="285" type="line"/>
      <point x="162" y="285" type="line"/>
      <point x="203" y="449" type="line"/>
      <point x="319" y="466" type="line"/>
      <point x="366" y="387" type="line"/>
    </contour>
    <contour>
      <point x="373" y="115" type="line"/>
      <point x="263" y="49" type="line"/>
      <point x="199" y="88" type="line"/>
      <point x="199" y="179" type="line"/>
      <point x="376" y="256" type="line"/>
      <point x="376" y="278" type="line"/>
      <point x="105" y="217" type="line"/>
      <point x="50" y="111" type="line"/>
      <point x="131" y="-10" type="line"/>
      <point x="297" y="0" type="line"/>
      <point x="373" y="84" type="line"/>
    </contour>
  </outline>
</glyph>
<glyph name="b" format="2">
  <advance width="683"/>
  <unicode hex="0062"/>
  <outline>
    <contour>
      <point x="235" y="770" type="line"/>
      <point x="235" y="440" type="line"/>
      <point x="426" y="518" type="line"/>
      <point x="599" y="429" type="line"/>
      <point x="639" y="259" type="line"/>
      <point x="576" y="87" type="line"/>
      <point x="374" y="-14" type="line"/>
      <point x="235" y="-4" type="line"/>
      <point x="98" y="50" type="line"/>
      <point x="98" y="657" type="line"/>
      <point x="81" y="700" type="line"/>
      <point x="5" y="692" type="line"/>
      <point x="5" y="719" type="line"/>
    </contour>
    <contour>
      <point x="235" y="108" type="line"/>
      <point x="317" y="43" type="line"/>
      <point x="443" y="58" type="line"/>
      <point x="486" y="138" type="line"/>
      <point x="480" y="335" type="line"/>
      <point x="379" y="443" type="line"/>
      <point x="235" y="401" type="line"/>
    </contour>
  </outline>
</glyph>
<glyph name="c" format="2">
  <advance width="583"/>
  <unicode hex="0063"/>
  <anchor x="327" y="0" name="bottom"/>
  <anchor x="287" y="505" name="top"/>
  <outline>
    <contour>
      <point x="542" y="407" type="line"/>
      <point x="495" y="477" type="line"/>
      <point x="367" y="518" type="line"/>
      <point x="154" y="480" type="line"/>
      <point x="44" y="308" type="line"/>
      <point x="94" y="82" type="line"/>
      <point x="250" y="-14" type="line"/>
      <point x="450" y="0" type="line"/>
      <point x="547" y="152" type="line"/>
      <point x="524" y="169" type="line"/>
      <point x="392" y="65" type="line"/>
      <point x="254" y="104" type="line"/>
      <point x="200" y="260" type="line"/>
      <point x="211" y="432" type="line"/>
      <point x="285" y="476" type="line"/>
      <point x="399" y="449" type="line"/>
      <point x="460" y="293" type="line"/>
      <point x="475" y="293" type="line"/>
    </contour>
  </outline>
</glyph>
<glyph name="d" format="2">
  <advance width="706"/>
  <unicode hex="0064"/>
  <outline>
    <contour>
      <point x="597" y="770" type="line"/>
      <point x="352" y="719" type="line"/>
      <point x="352" y="694" type="line"/>
      <point x="443" y="703" type="line"/>
      <point x="460" y="663" type="line"/>
      <point x="460" y="0" type="line"/>
      <point x="691" y="0" type="line"/>
      <point x="691" y="27" type="line"/>
      <point x="629" y="32" type="line"/>
      <point x="597" y="68" type="line"/>
    </contour>
    <contour>
      <point x="465" y="118" type="line"/>
      <point x="326" y="77" type="line"/>
      <point x="194" y="189" type="line"/>
      <point x="175" y="352" type="line"/>
      <point x="236" y="452" type="line"/>
      <point x="350" y="466" type="line"/>
      <point x="463" y="408" type="line"/>
      <point x="472" y="488" type="line"/>
      <point x="323" y="518" type="line"/>
      <point x="118" y="438" type="line"/>
      <point x="44" y="254" type="line"/>
      <point x="104" y="68" type="line"/>
      <point x="303" y="-13" type="line"/>
      <point x="465" y="79" type="line"/>
    </contour>
  </outline>
</glyph>
<glyph name="e" format="2">
  <advance width="594"/>
  <unicode hex="0065"/>
  <anchor x="297" y="0" name="bottom"/>
  <anchor x="405" y="0" name="ogonek"/>
  <anchor x="297" y="505" name="top"/>
  <outline>
    <contour>
      <point x="187" y="293" type="line"/>
      <point x="555" y="293" type="line"/>
      <point x="517" y="430" type="line"/>
      <point x="368" y="517" type="line"/>
      <point x="154" y="480" type="line"/>
      <point x="44" y="308" type="line"/>
      <point x="86" y="94" type="line"/>
      <point x="250" y="-13" type="line"/>
      <point x="451" y="5" type="line"/>
      <point x="554" y="149" type="line"/>
      <point x="538" y="164" type="line"/>
      <point x="386" y="63" type="line"/>
      <point x="257" y="104" type="line"/>
      <point x="183" y="260" type="line"/>
      <point x="208" y="432" type="line"/>
      <point x="281" y="475" type="line"/>
      <point x="368" y="455" type="line"/>
      <point x="421" y="378" type="line"/>
      <point x="424" y="327" type="line"/>
      <point x="187" y="328" type="line"/>
    </contour>
  </outline>
</glyph>
<glyph name="f" format="2">
  <advance width="446"/>
  <unicode hex="0066"/>
  <outline>
    <contour>
      <point x="130" y="75" type="line"/>
      <point x="97" y="30" type="line"/>
      <point x="43" y="27" type="line"/>
      <point x="43" y="0" type="line"/>
      <point x="405" y="0" type="line"/>
      <point x="405" y="27" type="line"/>
      <point x="310" y="30" type="line"/>
      <point x="267" y="75" type="line"/>
      <point x="267" y="677" type="line"/>
      <point x="309" y="730" type="line"/>
      <point x="391" y="723" type="line"/>
      <point x="441" y="538" type="line"/>
      <point x="463" y="538" type="line"/>
      <point x="516" y="702" type="line"/>
      <point x="357" y="770" type="line"/>
      <point x="205" y="735" type="line"/>
      <point x="130" y="593" type="line"/>
    </contour>
    <contour>
      <point x="68" y="505" type="line"/>
      <point x="68" y="473" type="line"/>
      <point x="394" y="473" type="line"/>
      <point x="394" y="505" type="line"/>
    </contour>
  </outline>
</glyph>
<glyph name="g" format="2">
  <advance width="635"/>
  <unicode hex="0067"/>
  <anchor x="318" y="-240" name="bottom"/>
  <anchor x="318" y="505" name="top"/>
  <outline>
    <contour>
      <point x="200" y="157" type="line"/>
      <point x="406" y="157" type="line"/>
      <point x="533" y="251" type="line"/>
      <point x="531" y="411" type="line"/>
      <point x="412" y="506" type="line"/>
      <point x="196" y="505" type="line"/>
      <point x="81" y="403" type="line"/>
      <point x="83" y="254" type="line"/>
    </contour>
    <contour>
      <point x="293" y="483" type="line"/>
      <point x="359" y="461" type="line"/>
      <point x="404" y="340" type="line"/>
      <point x="389" y="220" type="line"/>
      <point x="330" y="183" type="line"/>
      <point x="263" y="208" type="line"/>
      <point x="210" y="325" type="line"/>
      <point x="236" y="448" type="line"/>
    </contour>
    <contour>
      <point x="249" y="168" type="line"/>
      <point x="200" y="184" type="line"/>
      <point x="69" y="95" type="line"/>
      <point x="79" y="29" type="line"/>
      <point x="175" y="-27" type="line"/>
      <point x="437" y="-49" type="line"/>
      <point x="470" y="-109" type="line"/>
      <point x="451" y="-164" type="line"/>
      <point x="398" y="-190" type="line"/>
      <point x="214" y="-187" type="line"/>
      <point x="151" y="-118" type="line"/>
      <point x="157" y="-67" type="line"/>
      <point x="242" y="9" type="line"/>
      <point x="224" y="22" type="line"/>
      <point x="51" y="-76" type="line"/>
      <point x="34" y="-130" type="line"/>
      <point x="87" y="-194" type="line"/>
      <point x="208" y="-240" type="line"/>
      <point x="394" y="-237" type="line"/>
      <point x="584" y="-119" type="line"/>
      <point x="588" y="-12" type="line"/>
      <point x="502" y="54" type="line"/>
      <point x="193" y="98" type="line"/>
      <point x="190" y="131" type="line"/>
    </contour>
    <contour>
      <point x="584" y="565" type="line"/>
      <point x="514" y="505" type="line"/>
      <point x="429" y="479" type="line"/>
      <point x="449" y="452" type="line"/>
      <point x="568" y="453" type="line"/>
      <point x="607" y="560" type="line"/>
    </contour>
  </outline>
</glyph>
<glyph name="h" format="2">
  <advance width="692"/>
  <unicode hex="0068"/>
  <outline>
    <contour>
      <point x="622" y="30" type="line"/>
      <point x="589" y="75" type="line"/>
      <point x="589" y="404" type="line"/>
      <point x="538" y="495" type="line"/>
      <point x="408" y="514" type="line"/>
      <point x="249" y="426" type="line"/>
      <point x="249" y="770" type="line"/>
      <point x="25" y="724" type="line"/>
      <point x="25" y="697" type="line"/>
      <point x="95" y="702" type="line"/>
      <point x="112" y="662" type="line"/>
      <point x="112" y="75" type="line"/>
      <point x="79" y="30" type="line"/>
      <point x="25" y="27" type="line"/>
      <point x="25" y="0" type="line"/>
      <point x="336" y="0" type="line"/>
      <point x="336" y="27" type="line"/>
      <point x="282" y="30" type="line"/>
      <point x="249" y="75" type="line"/>
      <point x="249" y="389" type="line"/>
      <point x="382" y="438" type="line"/>
      <point x="452" y="364" type="line"/>
      <point x="452" y="75" type="line"/>
      <point x="419" y="30" type="line"/>
      <point x="365" y="27" type="line"/>
      <point x="365" y="0" type="line"/>
      <point x="676" y="0" type="line"/>
      <point x="676" y="27" type="line"/>
    </contour>
  </outline>
</glyph>
<glyph name="i" format="2">
  <advance width="357"/>
  <unicode hex="0069"/>
  <anchor x="183" y="0" name="bottom"/>
  <anchor x="323" y="10" name="ogonek"/>
  <anchor x="183" y="500" name="top"/>
  <outline>
    <contour>
      <point x="242" y="620" type="line"/>
      <point x="272" y="680" type="line"/>
      <point x="259" y="745" type="line"/>
      <point x="203" y="771" type="line"/>
      <point x="138" y="758" type="line"/>
      <point x="103" y="706" type="line"/>
      <point x="120" y="635" type="line"/>
      <point x="177" y="609" type="line"/>
    </contour>
    <component base="idotless"/>
  </outline>
</glyph>
<glyph name="j" format="2">
  <advance width="358"/>
  <unicode hex="006A"/>
  <outline>
    <contour>
      <point x="231" y="620" type="line"/>
      <point x="261" y="680" type="line"/>
      <point x="248" y="745" type="line"/>
      <point x="192" y="771" type="line"/>
      <point x="127" y="758" type="line"/>
      <point x="92" y="706" type="line"/>
      <point x="109" y="635" type="line"/>
      <point x="166" y="609" type="line"/>
    </contour>
    <component base="jdotless" xOffset="-13" identifier="97B24F0D"/>
  </outline>
</glyph>
<glyph name="k" format="2">
  <advance width="641"/>
  <unicode hex="006B"/>
  <anchor x="321" y="0" name="bottom"/>
  <anchor x="321" y="770" name="top"/>
  <outline>
    <contour>
      <point x="227" y="270" type="line"/>
      <point x="247" y="233" type="line"/>
      <point x="556" y="467" type="line"/>
      <point x="576" y="481" type="line"/>
      <point x="620" y="484" type="line"/>
      <point x="620" y="506" type="line"/>
      <point x="407" y="506" type="line"/>
      <point x="407" y="484" type="line"/>
      <point x="464" y="481" type="line"/>
      <point x="464" y="429" type="line"/>
      <point x="478" y="452" type="line"/>
    </contour>
    <contour>
      <point x="249" y="771" type="line"/>
      <point x="25" y="718" type="line"/>
      <point x="25" y="688" type="line"/>
      <point x="95" y="699" type="line"/>
      <point x="112" y="662" type="line"/>
      <point x="112" y="75" type="line"/>
      <point x="79" y="30" type="line"/>
      <point x="25" y="27" type="line"/>
      <point x="25" y="0" type="line"/>
      <point x="337" y="0" type="line"/>
      <point x="337" y="27" type="line"/>
      <point x="282" y="30" type="line"/>
      <point x="249" y="75" type="line"/>
    </contour>
    <contour>
      <point x="375" y="336" type="line"/>
      <point x="267" y="261" type="line"/>
      <point x="419" y="25" type="line"/>
      <point x="464" y="0" type="line"/>
      <point x="664" y="0" type="line"/>
      <point x="664" y="27" type="line"/>
      <point x="601" y="33" type="line"/>
    </contour>
  </outline>
</glyph>
<glyph name="l" format="2">
  <advance width="363"/>
  <unicode hex="006C"/>
  <anchor x="189" y="0" name="bottom"/>
  <anchor x="189" y="385" name="center"/>
  <anchor x="189" y="770" name="top"/>
  <anchor x="327" y="505" name="topright"/>
  <outline>
    <contour>
      <point x="251" y="770" type="line"/>
      <point x="27" y="724" type="line"/>
      <point x="27" y="696" type="line"/>
      <point x="97" y="707" type="line"/>
      <point x="114" y="667" type="line"/>
      <point x="114" y="74" type="line"/>
      <point x="82" y="30" type="line"/>
      <point x="28" y="27" type="line"/>
      <point x="28" y="0" type="line"/>
      <point x="338" y="0" type="line"/>
      <point x="338" y="27" type="line"/>
      <point x="282" y="30" type="line"/>
      <point x="251" y="75" type="line"/>
    </contour>
  </outline>
</glyph>
<glyph name="m" format="2">
  <advance width="1028"/>
  <unicode hex="006D"/>
  <outline>
    <contour>
      <point x="1012" y="0" type="line"/>
      <point x="1012" y="27" type="line"/>
      <point x="956" y="30" type="line"/>
      <point x="925" y="75" type="line"/>
      <point x="925" y="408" type="line"/>
      <point x="876" y="497" type="line"/>
      <point x="756" y="518" type="line"/>
      <point x="575" y="412" type="line"/>
      <point x="575" y="379" type="line"/>
      <point x="721" y="442" type="line"/>
      <point x="788" y="368" type="line"/>
      <point x="788" y="75" type="line"/>
      <point x="755" y="30" type="line"/>
      <point x="701" y="27" type="line"/>
      <point x="701" y="0" type="line"/>
    </contour>
    <contour>
      <point x="665" y="0" type="line"/>
      <point x="665" y="27" type="line"/>
      <point x="611" y="30" type="line"/>
      <point x="589" y="62" type="line"/>
      <point x="589" y="408" type="line"/>
      <point x="540" y="497" type="line"/>
      <point x="420" y="518" type="line"/>
      <point x="231" y="409" type="line"/>
      <point x="231" y="377" type="line"/>
      <point x="385" y="442" type="line"/>
      <point x="452" y="368" type="line"/>
      <point x="452" y="75" type="line"/>
      <point x="419" y="30" type="line"/>
      <point x="365" y="27" type="line"/>
      <point x="365" y="0" type="line"/>
    </contour>
    <contour>
      <point x="30" y="465" type="line"/>
      <point x="30" y="439" type="line"/>
      <point x="100" y="451" type="line"/>
      <point x="117" y="411" type="line"/>
      <point x="117" y="75" type="line"/>
      <point x="84" y="30" type="line"/>
      <point x="30" y="27" type="line"/>
      <point x="30" y="0" type="line"/>
      <point x="339" y="0" type="line"/>
      <point x="339" y="27" type="line"/>
      <point x="285" y="30" type="line"/>
      <point x="254" y="75" type="line"/>
      <point x="254" y="514" type="line"/>
    </contour>
  </outline>
</glyph>
<glyph name="n" format="2">
  <advance width="695"/>
  <unicode hex="006E"/>
  <anchor x="353" y="0" name="bottom"/>
  <anchor x="353" y="505" name="top"/>
  <outline>
    <contour>
      <point x="30" y="465" type="line"/>
      <point x="30" y="438" type="line"/>
      <point x="100" y="449" type="line"/>
      <point x="117" y="409" type="line"/>
      <point x="117" y="75" type="line"/>
      <point x="84" y="30" type="line"/>
      <point x="30" y="27" type="line"/>
      <point x="30" y="0" type="line"/>
      <point x="339" y="0" type="line"/>
      <point x="339" y="27" type="line"/>
      <point x="285" y="30" type="line"/>
      <point x="254" y="75" type="line"/>
      <point x="254" y="389" type="line"/>
      <point x="387" y="438" type="line"/>
      <point x="457" y="364" type="line"/>
      <point x="457" y="75" type="line"/>
      <point x="424" y="30" type="line"/>
      <point x="370" y="27" type="line"/>
      <point x="370" y="0" type="line"/>
      <point x="679" y="0" type="line"/>
      <point x="679" y="27" type="line"/>
      <point x="625" y="30" type="line"/>
      <point x="594" y="75" type="line"/>
      <point x="594" y="404" type="line"/>
      <point x="542" y="493" type="line"/>
      <point x="413" y="514" type="line"/>
      <point x="254" y="418" type="line"/>
      <point x="254" y="514" type="line"/>
    </contour>
  </outline>
</glyph>
<glyph name="o" format="2">
  <advance width="636"/>
  <unicode hex="006F"/>
  <anchor x="310" y="0" name="bottom"/>
  <anchor x="310" y="250" name="center"/>
  <anchor x="560" y="10" name="ogonek"/>
  <anchor x="310" y="500" name="top"/>
  <anchor x="602" y="500" name="topright"/>
  <outline>
    <contour>
      <point x="428" y="0" type="line"/>
      <point x="592" y="131" type="line"/>
      <point x="590" y="368" type="line"/>
      <point x="424" y="505" type="line"/>
      <point x="190" y="505" type="line"/>
      <point x="44" y="366" type="line"/>
      <point x="46" y="129" type="line"/>
      <point x="193" y="1" type="line"/>
    </contour>
    <contour>
      <point x="317" y="471" type="line"/>
      <point x="397" y="451" type="line"/>
      <point x="463" y="250" type="line"/>
      <point x="398" y="55" type="line"/>
      <point x="318" y="35" type="line"/>
      <point x="232" y="55" type="line"/>
      <point x="173" y="250" type="line"/>
      <point x="231" y="450" type="line"/>
    </contour>
  </outline>
</glyph>
<glyph name="p" format="2">
  <advance width="688"/>
  <unicode hex="0070"/>
  <outline>
    <contour>
      <point x="232" y="390" type="line"/>
      <point x="398" y="437" type="line"/>
      <point x="485" y="329" type="line"/>
      <point x="491" y="138" type="line"/>
      <point x="448" y="58" type="line"/>
      <point x="328" y="38" type="line"/>
      <point x="232" y="102" type="line"/>
      <point x="232" y="23" type="line"/>
      <point x="383" y="-13" type="line"/>
      <point x="580" y="88" type="line"/>
      <point x="644" y="253" type="line"/>
      <point x="604" y="424" type="line"/>
      <point x="411" y="518" type="line"/>
      <point x="232" y="431" type="line"/>
    </contour>
    <contour>
      <point x="239" y="518" type="line"/>
      <point x="15" y="467" type="line"/>
      <point x="15" y="438" type="line"/>
      <point x="85" y="448" type="line"/>
      <point x="102" y="408" type="line"/>
      <point x="102" y="-165" type="line"/>
      <point x="69" y="-210" type="line"/>
      <point x="15" y="-213" type="line"/>
      <point x="15" y="-240" type="line"/>
      <point x="383" y="-240" type="line"/>
      <point x="383" y="-213" type="line"/>
      <point x="292" y="-210" type="line"/>
      <point x="239" y="-165" type="line"/>
    </contour>
  </outline>
</glyph>
<glyph name="q" format="2">
  <advance width="675"/>
  <unicode hex="0071"/>
  <outline>
    <contour>
      <point x="442" y="118" type="line"/>
      <point x="313" y="77" type="line"/>
      <point x="191" y="189" type="line"/>
      <point x="172" y="352" type="line"/>
      <point x="233" y="452" type="line"/>
      <point x="337" y="466" type="line"/>
      <point x="440" y="415" type="line"/>
      <point x="449" y="497" type="line"/>
      <point x="310" y="518" type="line"/>
      <point x="115" y="438" type="line"/>
      <point x="44" y="244" type="line"/>
      <point x="101" y="68" type="line"/>
      <point x="290" y="-13" type="line"/>
      <point x="442" y="79" type="line"/>
    </contour>
    <contour>
      <point x="436" y="-165" type="line"/>
      <point x="403" y="-205" type="line"/>
      <point x="299" y="-213" type="line"/>
      <point x="299" y="-240" type="line"/>
      <point x="660" y="-240" type="line"/>
      <point x="660" y="-213" type="line"/>
      <point x="606" y="-205" type="line"/>
      <point x="573" y="-165" type="line"/>
      <point x="573" y="518" type="line"/>
      <point x="553" y="518" type="line"/>
      <point x="509" y="473" type="line"/>
      <point x="449" y="497" type="line"/>
      <point x="436" y="492" type="line"/>
    </contour>
  </outline>
</glyph>
<glyph name="r" format="2">
  <advance width="551"/>
  <unicode hex="0072"/>
  <anchor x="179" y="0" name="bottom"/>
  <anchor x="274" y="500" name="top"/>
  <outline>
    <contour>
      <point x="30" y="28" type="line"/>
      <point x="30" y="0" type="line"/>
      <point x="392" y="0" type="line"/>
      <point x="392" y="28" type="line"/>
      <point x="297" y="31" type="line"/>
      <point x="254" y="76" type="line"/>
      <point x="254" y="517" type="line"/>
      <point x="30" y="464" type="line"/>
      <point x="30" y="437" type="line"/>
      <point x="100" y="445" type="line"/>
      <point x="117" y="405" type="line"/>
      <point x="117" y="76" type="line"/>
      <point x="84" y="31" type="line"/>
    </contour>
    <contour>
      <point x="473" y="301" type="line"/>
      <point x="531" y="436" type="line"/>
      <point x="435" y="517" type="line"/>
      <point x="335" y="492" type="line"/>
      <point x="253" y="382" type="line"/>
      <point x="253" y="339" type="line"/>
      <point x="371" y="435" type="line"/>
      <point x="401" y="423" type="line"/>
      <point x="451" y="301" type="line"/>
    </contour>
  </outline>
</glyph>
<glyph name="s" format="2">
  <advance width="541"/>
  <unicode hex="0073"/>
  <anchor x="295" y="0" name="bottom"/>
  <anchor x="286" y="505" name="top"/>
  <outline>
    <contour>
      <point x="473" y="467" type="line"/>
      <point x="326" y="521" type="line"/>
      <point x="151" y="502" type="line"/>
      <point x="54" y="381" type="line"/>
      <point x="88" y="267" type="line"/>
      <point x="368" y="148" type="line"/>
      <point x="377" y="75" type="line"/>
      <point x="303" y="22" type="line"/>
      <point x="175" y="56" type="line"/>
      <point x="104" y="201" type="line"/>
      <point x="82" y="202" type="line"/>
      <point x="62" y="50" type="line"/>
      <point x="156" y="2" type="line"/>
      <point x="333" y="-12" type="line"/>
      <point x="475" y="64" type="line"/>
      <point x="492" y="178" type="line"/>
      <point x="450" y="256" type="line"/>
      <point x="219" y="344" type="line"/>
      <point x="177" y="405" type="line"/>
      <point x="208" y="473" type="line"/>
      <point x="288" y="485" type="line"/>
      <point x="381" y="445" type="line"/>
      <point x="428" y="329" type="line"/>
      <point x="450" y="329" type="line"/>
    </contour>
  </outline>
</glyph>
<glyph name="t" format="2">
  <advance width="440"/>
  <unicode hex="0074"/>
  <anchor x="273" y="0" name="bottom"/>
  <anchor x="210" y="250" name="center"/>
  <anchor x="213" y="628" name="top"/>
  <anchor x="387" y="500" name="topright"/>
  <outline>
    <contour>
      <point x="395" y="104" type="line"/>
      <point x="342" y="74" type="line"/>
      <point x="271" y="75" type="line"/>
      <point x="233" y="124" type="line"/>
      <point x="233" y="471" type="line"/>
      <point x="392" y="471" type="line"/>
      <point x="392" y="505" type="line"/>
      <point x="233" y="505" type="line"/>
      <point x="233" y="630" type="line"/>
      <point x="213" y="630" type="line"/>
      <point x="160" y="551" type="line"/>
      <point x="99" y="515" type="line"/>
      <point x="26" y="504" type="line"/>
      <point x="26" y="471" type="line"/>
      <point x="85" y="471" type="line"/>
      <point x="96" y="445" type="line"/>
      <point x="96" y="107" type="line"/>
      <point x="139" y="11" type="line"/>
      <point x="288" y="-11" type="line"/>
      <point x="411" y="81" type="line"/>
    </contour>
  </outline>
</glyph>
<glyph name="u" format="2">
  <advance width="703"/>
  <unicode hex="0075"/>
  <anchor x="343" y="0" name="bottom"/>
  <anchor x="583" y="-8" name="ogonek"/>
  <anchor x="323" y="500" name="top"/>
  <anchor x="651" y="500" name="topright"/>
  <outline>
    <contour>
      <point x="240" y="130" type="line"/>
      <point x="240" y="516" type="line"/>
      <point x="16" y="470" type="line"/>
      <point x="16" y="446" type="line"/>
      <point x="86" y="441" type="line"/>
      <point x="103" y="401" type="line"/>
      <point x="103" y="96" type="line"/>
      <point x="155" y="7" type="line"/>
      <point x="284" y="-12" type="line"/>
      <point x="444" y="91" type="line"/>
      <point x="445" y="0" type="line"/>
      <point x="683" y="0" type="line"/>
      <point x="683" y="27" type="line"/>
      <point x="610" y="30" type="line"/>
      <point x="581" y="70" type="line"/>
      <point x="581" y="516" type="line"/>
      <point x="357" y="470" type="line"/>
      <point x="357" y="446" type="line"/>
      <point x="427" y="441" type="line"/>
      <point x="444" y="401" type="line"/>
      <point x="444" y="132" type="line"/>
      <point x="310" y="70" type="line"/>
    </contour>
  </outline>
</glyph>
<glyph name="v" format="2">
  <advance width="568"/>
  <unicode hex="0076"/>
  <outline>
    <contour>
      <point x="-30" y="478" type="line"/>
      <point x="24" y="475" type="line"/>
      <point x="57" y="435" type="line"/>
      <point x="268" y="0" type="line"/>
      <point x="322" y="0" type="line"/>
      <point x="492" y="432" type="line"/>
      <point x="539" y="475" type="line"/>
      <point x="593" y="478" type="line"/>
      <point x="593" y="505" type="line"/>
      <point x="371" y="505" type="line"/>
      <point x="371" y="478" type="line"/>
      <point x="435" y="475" type="line"/>
      <point x="435" y="403" type="line"/>
      <point x="334" y="137" type="line"/>
      <point x="202" y="436" type="line"/>
      <point x="224" y="475" type="line"/>
      <point x="278" y="478" type="line"/>
      <point x="278" y="505" type="line"/>
      <point x="-30" y="505" type="line"/>
    </contour>
  </outline>
</glyph>
<glyph name="w" format="2">
  <advance width="820"/>
  <unicode hex="0077"/>
  <anchor x="423" y="0" name="bottom"/>
  <anchor x="423" y="505" name="top"/>
  <outline>
    <contour>
      <point x="190" y="435" type="line"/>
      <point x="213" y="475" type="line"/>
      <point x="257" y="478" type="line"/>
      <point x="257" y="505" type="line"/>
      <point x="-42" y="505" type="line"/>
      <point x="-42" y="478" type="line"/>
      <point x="12" y="475" type="line"/>
      <point x="47" y="437" type="line"/>
      <point x="251" y="0" type="line"/>
      <point x="305" y="0" type="line"/>
      <point x="469" y="433" type="line"/>
      <point x="425" y="433" type="line"/>
      <point x="315" y="151" type="line"/>
    </contour>
    <contour>
      <point x="513" y="435" type="line"/>
      <point x="546" y="475" type="line"/>
      <point x="600" y="478" type="line"/>
      <point x="600" y="505" type="line"/>
      <point x="281" y="505" type="line"/>
      <point x="281" y="478" type="line"/>
      <point x="335" y="475" type="line"/>
      <point x="373" y="435" type="line"/>
      <point x="567" y="0" type="line"/>
      <point x="621" y="0" type="line"/>
      <point x="773" y="437" type="line"/>
      <point x="804" y="475" type="line"/>
      <point x="858" y="478" type="line"/>
      <point x="858" y="505" type="line"/>
      <point x="656" y="505" type="line"/>
      <point x="656" y="478" type="line"/>
      <point x="710" y="475" type="line"/>
      <point x="710" y="396" type="line"/>
      <point x="631" y="151" type="line"/>
    </contour>
  </outline>
</glyph>
<glyph name="x" format="2">
  <advance width="585"/>
  <unicode hex="0078"/>
  <outline>
    <contour>
      <point x="292" y="505" type="line"/>
      <point x="-41" y="505" type="line"/>
      <point x="-41" y="478" type="line"/>
      <point x="13" y="475" type="line"/>
      <point x="42" y="449" type="line"/>
      <point x="352" y="70" type="line"/>
      <point x="328" y="30" type="line"/>
      <point x="274" y="27" type="line"/>
      <point x="274" y="0" type="line"/>
      <point x="615" y="0" type="line"/>
      <point x="615" y="27" type="line"/>
      <point x="561" y="30" type="line"/>
      <point x="530" y="60" type="line"/>
      <point x="225" y="435" type="line"/>
      <point x="245" y="475" type="line"/>
      <point x="292" y="478" type="line"/>
    </contour>
    <contour>
      <point x="286" y="232" type="line"/>
      <point x="231" y="232" type="line"/>
      <point x="80" y="66" type="line"/>
      <point x="29" y="29" type="line"/>
      <point x="-23" y="26" type="line"/>
      <point x="-23" y="0" type="line"/>
      <point x="206" y="0" type="line"/>
      <point x="206" y="26" type="line"/>
      <point x="142" y="29" type="line"/>
      <point x="142" y="69" type="line"/>
    </contour>
    <contour>
      <point x="283" y="266" type="line"/>
      <point x="338" y="266" type="line"/>
      <point x="526" y="475" type="line"/>
      <point x="604" y="478" type="line"/>
      <point x="604" y="505" type="line"/>
      <point x="351" y="505" type="line"/>
      <point x="351" y="478" type="line"/>
      <point x="427" y="475" type="line"/>
      <point x="427" y="436" type="line"/>
    </contour>
  </outline>
</glyph>
<glyph name="y" format="2">
  <advance width="595"/>
  <unicode hex="0079"/>
  <anchor x="297" y="0" name="bottom"/>
  <anchor x="326" y="500" name="top"/>
  <outline>
    <contour>
      <point x="108" y="-194" type="line"/>
      <point x="211" y="-260" type="line"/>
      <point x="322" y="0" type="line"/>
      <point x="522" y="430" type="line"/>
      <point x="561" y="475" type="line"/>
      <point x="621" y="478" type="line"/>
      <point x="621" y="505" type="line"/>
      <point x="393" y="505" type="line"/>
      <point x="393" y="478" type="line"/>
      <point x="457" y="475" type="line"/>
      <point x="457" y="395" type="line"/>
      <point x="358" y="167" type="line"/>
      <point x="220" y="436" type="line"/>
      <point x="248" y="475" type="line"/>
      <point x="326" y="478" type="line"/>
      <point x="326" y="505" type="line"/>
      <point x="-19" y="505" type="line"/>
      <point x="-19" y="478" type="line"/>
      <point x="33" y="475" type="line"/>
      <point x="74" y="434" type="line"/>
      <point x="286" y="27" type="line"/>
    </contour>
  </outline>
</glyph>
<glyph name="z" format="2">
  <advance width="590"/>
  <unicode hex="007A"/>
  <anchor x="295" y="0" name="bottom"/>
  <anchor x="295" y="250" name="center"/>
  <anchor x="295" y="500" name="top"/>
  <outline>
    <contour>
      <point x="538" y="482" type="line"/>
      <point x="527" y="505" type="line"/>
      <point x="88" y="505" type="line"/>
      <point x="70" y="319" type="line"/>
      <point x="94" y="319" type="line"/>
      <point x="154" y="444" type="line"/>
      <point x="197" y="475" type="line"/>
      <point x="371" y="475" type="line"/>
      <point x="55" y="23" type="line"/>
      <point x="65" y="0" type="line"/>
      <point x="514" y="0" type="line"/>
      <point x="535" y="178" type="line"/>
      <point x="511" y="178" type="line"/>
      <point x="464" y="61" type="line"/>
      <point x="430" y="34" type="line"/>
      <point x="228" y="34" type="line"/>
    </contour>
  </outline>
</glyph>
<glyph name="braceleft" format="2">
  <advance width="430"/>
  <unicode hex="007B"/>
  <outline>
    <contour>
      <point x="207" y="230" type="line"/>
      <point x="131" y="270" type="line"/>
      <point x="207" y="308" type="line"/>
      <point x="274" y="391" type="line"/>
      <point x="274" y="617" type="line"/>
      <point x="380" y="724" type="line"/>
      <point x="371" y="740" type="line"/>
      <point x="206" y="665" type="line"/>
      <point x="165" y="583" type="line"/>
      <point x="165" y="365" type="line"/>
      <point x="137" y="298" type="line"/>
      <point x="52" y="277" type="line"/>
      <point x="52" y="264" type="line"/>
      <point x="137" y="242" type="line"/>
      <point x="165" y="175" type="line"/>
      <point x="165" y="-63" type="line"/>
      <point x="206" y="-145" type="line"/>
      <point x="371" y="-220" type="line"/>
      <point x="380" y="-204" type="line"/>
      <point x="274" y="-97" type="line"/>
      <point x="274" y="147" type="line"/>
    </contour>
  </outline>
</glyph>
<glyph name="bar" format="2">
  <advance width="229"/>
  <unicode hex="007C"/>
  <outline>
    <contour>
      <point x="85" y="705" type="line"/>
      <point x="85" y="-140" type="line"/>
      <point x="144" y="-140" type="line"/>
      <point x="144" y="705" type="line"/>
    </contour>
  </outline>
</glyph>
<glyph name="asciitilde" format="2">
  <advance width="451"/>
  <unicode hex="007E"/>
  <outline>
    <contour>
      <point x="30" y="260" type="line"/>
      <point x="100" y="386" type="line"/>
      <point x="144" y="390" type="line"/>
      <point x="343" y="324" type="line"/>
      <point x="393" y="384" type="line"/>
      <point x="421" y="373" type="line"/>
      <point x="368" y="250" type="line"/>
      <point x="319" y="232" type="line"/>
      <point x="110" y="303" type="line"/>
      <point x="60" y="244" type="line"/>
    </contour>
  </outline>
</glyph>
<glyph name="cent" format="2">
  <advance width="583"/>
  <unicode hex="00A2"/>
  <outline>
    <contour>
      <point x="281" y="641" type="line"/>
      <point x="281" y="487" type="line"/>
      <point x="336" y="487" type="line"/>
      <point x="336" y="641" type="line"/>
    </contour>
    <contour>
      <point x="281" y="3" type="line"/>
      <point x="281" y="-142" type="line"/>
      <point x="336" y="-142" type="line"/>
      <point x="336" y="3" type="line"/>
    </contour>
    <component base="c"/>
  </outline>
</glyph>
<glyph name="sterling" format="2">
  <advance width="608"/>
  <unicode hex="00A3"/>
  <outline>
    <contour>
      <point x="211" y="587" type="line"/>
      <point x="266" y="667" type="line"/>
      <point x="416" y="651" type="line"/>
      <point x="495" y="449" type="line"/>
      <point x="513" y="449" type="line"/>
      <point x="559" y="609" type="line"/>
      <point x="512" y="679" type="line"/>
      <point x="324" y="720" type="line"/>
      <point x="163" y="687" type="line"/>
      <point x="74" y="523" type="line"/>
      <point x="173" y="259" type="line"/>
      <point x="139" y="131" type="line"/>
      <point x="55" y="29" type="line"/>
      <point x="62" y="0" type="line"/>
      <point x="523" y="0" type="line"/>
      <point x="566" y="215" type="line"/>
      <point x="525" y="215" type="line"/>
      <point x="479" y="101" type="line"/>
      <point x="410" y="58" type="line"/>
      <point x="194" y="58" type="line"/>
      <point x="293" y="175" type="line"/>
      <point x="303" y="345" type="line"/>
    </contour>
    <contour>
      <point x="454" y="401" type="line"/>
      <point x="43" y="400" type="line"/>
      <point x="43" y="348" type="line"/>
      <point x="445" y="348" type="line"/>
    </contour>
    <contour>
      <point x="453" y="292" type="line"/>
      <point x="42" y="291" type="line"/>
      <point x="42" y="239" type="line"/>
      <point x="444" y="239" type="line"/>
    </contour>
  </outline>
</glyph>
<glyph name="currency" format="2">
  <advance width="576"/>
  <unicode hex="00A4"/>
  <outline>
    <contour>
      <point x="212" y="136" type="line"/>
      <point x="376" y="136" type="line"/>
      <point x="482" y="242" type="line"/>
      <point x="482" y="394" type="line"/>
      <point x="367" y="498" type="line"/>
      <point x="204" y="498" type="line"/>
      <point x="97" y="393" type="line"/>
      <point x="97" y="245" type="line"/>
    </contour>
    <contour>
      <point x="50" y="515" type="line"/>
      <point x="142" y="422" type="line"/>
      <point x="174" y="456" type="line"/>
      <point x="82" y="549" type="line"/>
    </contour>
    <contour>
      <point x="370" y="435" type="line"/>
      <point x="440" y="319" type="line"/>
      <point x="325" y="178" type="line"/>
      <point x="205" y="203" type="line"/>
      <point x="150" y="310" type="line"/>
      <point x="256" y="459" type="line"/>
    </contour>
    <contour>
      <point x="526" y="515" type="line"/>
      <point x="495" y="549" type="line"/>
      <point x="403" y="456" type="line"/>
      <point x="435" y="422" type="line"/>
    </contour>
    <contour>
      <point x="50" y="121" type="line"/>
      <point x="82" y="88" type="line"/>
      <point x="174" y="181" type="line"/>
      <point x="142" y="215" type="line"/>
    </contour>
    <contour>
      <point x="526" y="121" type="line"/>
      <point x="435" y="215" type="line"/>
      <point x="403" y="181" type="line"/>
      <point x="495" y="88" type="line"/>
    </contour>
  </outline>
</glyph>
<glyph name="yen" format="2">
  <advance width="620"/>
  <unicode hex="00A5"/>
  <anchor x="347" y="0" name="bottom"/>
  <anchor x="347" y="700" name="top"/>
  <anchor x="23" y="700" name="topleft"/>
  <outline>
    <contour>
      <point x="297" y="706" type="line"/>
      <point x="-49" y="706" type="line"/>
      <point x="-49" y="684" type="line"/>
      <point x="25" y="681" type="line"/>
      <point x="58" y="636" type="line"/>
      <point x="257" y="322" type="line"/>
      <point x="257" y="70" type="line"/>
      <point x="214" y="30" type="line"/>
      <point x="157" y="27" type="line"/>
      <point x="157" y="0" type="line"/>
      <point x="502" y="0" type="line"/>
      <point x="502" y="27" type="line"/>
      <point x="445" y="30" type="line"/>
      <point x="402" y="70" type="line"/>
      <point x="402" y="319" type="line"/>
      <point x="560" y="630" type="line"/>
      <point x="611" y="681" type="line"/>
      <point x="676" y="684" type="line"/>
      <point x="676" y="706" type="line"/>
      <point x="414" y="706" type="line"/>
      <point x="414" y="684" type="line"/>
      <point x="505" y="681" type="line"/>
      <point x="512" y="631" type="line"/>
      <point x="376" y="373" type="line"/>
      <point x="202" y="653" type="line"/>
      <point x="223" y="681" type="line"/>
      <point x="297" y="684" type="line"/>
    </contour>
    <contour>
      <point x="506" y="328" type="line"/>
      <point x="146" y="327" type="line"/>
      <point x="146" y="275" type="line"/>
      <point x="506" y="275" type="line"/>
    </contour>
    <contour>
      <point x="506" y="222" type="line"/>
      <point x="145" y="221" type="line"/>
      <point x="145" y="169" type="line"/>
      <point x="506" y="169" type="line"/>
    </contour>
  </outline>
</glyph>
<glyph name="brokenbar" format="2">
  <advance width="229"/>
  <unicode hex="00A6"/>
  <outline>
    <contour>
      <point x="85" y="349" type="line"/>
      <point x="144" y="349" type="line"/>
      <point x="144" y="705" type="line"/>
      <point x="85" y="705" type="line"/>
    </contour>
    <contour>
      <point x="144" y="232" type="line"/>
      <point x="85" y="232" type="line"/>
      <point x="85" y="-140" type="line"/>
      <point x="144" y="-140" type="line"/>
    </contour>
  </outline>
</glyph>
<glyph name="section" format="2">
  <advance width="587"/>
  <unicode hex="00A7"/>
  <outline>
    <contour>
      <point x="342" y="371" type="line"/>
      <point x="304" y="335" type="line"/>
      <point x="224" y="323" type="line"/>
      <point x="193" y="255" type="line"/>
      <point x="235" y="194" type="line"/>
      <point x="466" y="106" type="line"/>
      <point x="508" y="28" type="line"/>
      <point x="491" y="-86" type="line"/>
      <point x="349" y="-162" type="line"/>
      <point x="172" y="-148" type="line"/>
      <point x="78" y="-100" type="line"/>
      <point x="98" y="52" type="line"/>
      <point x="120" y="51" type="line"/>
      <point x="191" y="-94" type="line"/>
      <point x="319" y="-128" type="line"/>
      <point x="393" y="-75" type="line"/>
      <point x="384" y="-2" type="line"/>
      <point x="104" y="117" type="line"/>
      <point x="70" y="231" type="line"/>
      <point x="167" y="352" type="line"/>
    </contour>
    <contour>
      <point x="358" y="122" type="line"/>
      <point x="328" y="156" type="line"/>
      <point x="402" y="209" type="line"/>
      <point x="393" y="282" type="line"/>
      <point x="113" y="401" type="line"/>
      <point x="79" y="515" type="line"/>
      <point x="176" y="636" type="line"/>
      <point x="351" y="655" type="line"/>
      <point x="498" y="601" type="line"/>
      <point x="475" y="463" type="line"/>
      <point x="453" y="463" type="line"/>
      <point x="406" y="579" type="line"/>
      <point x="313" y="619" type="line"/>
      <point x="233" y="607" type="line"/>
      <point x="202" y="539" type="line"/>
      <point x="244" y="478" type="line"/>
      <point x="475" y="390" type="line"/>
      <point x="517" y="312" type="line"/>
      <point x="500" y="198" type="line"/>
    </contour>
  </outline>
</glyph>
<glyph name="copyright" format="2">
  <advance width="947"/>
  <unicode hex="00A9"/>
  <anchor x="451" y="100" name="bottom"/>
  <anchor x="451" y="600" name="top"/>
  <outline>
    <contour>
      <point x="418" y="-42" type="line"/>
      <point x="746" y="44" type="line"/>
      <point x="897" y="295" type="line"/>
      <point x="815" y="592" type="line"/>
      <point x="526" y="743" type="line"/>
      <point x="199" y="657" type="line"/>
      <point x="50" y="391" type="line"/>
      <point x="130" y="113" type="line"/>
    </contour>
    <contour>
      <point x="172" y="198" type="line"/>
      <point x="138" y="439" type="line"/>
      <point x="289" y="643" type="line"/>
      <point x="553" y="672" type="line"/>
      <point x="779" y="511" type="line"/>
      <point x="813" y="257" type="line"/>
      <point x="665" y="65" type="line"/>
      <point x="392" y="36" type="line"/>
    </contour>
    <contour>
      <point x="673" y="480" type="line"/>
      <point x="617" y="386" type="line"/>
      <point x="605" y="386" type="line"/>
      <point x="555" y="514" type="line"/>
      <point x="461" y="536" type="line"/>
      <point x="400" y="500" type="line"/>
      <point x="391" y="359" type="line"/>
      <point x="435" y="230" type="line"/>
      <point x="549" y="198" type="line"/>
      <point x="658" y="284" type="line"/>
      <point x="677" y="270" type="line"/>
      <point x="597" y="144" type="line"/>
      <point x="432" y="133" type="line"/>
      <point x="304" y="212" type="line"/>
      <point x="262" y="398" type="line"/>
      <point x="353" y="540" type="line"/>
      <point x="528" y="571" type="line"/>
      <point x="634" y="537" type="line"/>
    </contour>
  </outline>
</glyph>
<glyph name="ordfeminine" format="2">
  <advance width="345"/>
  <unicode hex="00AA"/>
  <outline>
    <contour>
      <point x="196" y="451" type="line"/>
      <point x="196" y="689" type="line"/>
      <point x="167" y="738" type="line"/>
      <point x="95" y="728" type="line"/>
      <point x="69" y="630" type="line"/>
      <point x="46" y="630" type="line"/>
      <point x="11" y="723" type="line"/>
      <point x="121" y="773" type="line"/>
      <point x="238" y="757" type="line"/>
      <point x="282" y="685" type="line"/>
      <point x="282" y="498" type="line"/>
      <point x="302" y="476" type="line"/>
      <point x="345" y="473" type="line"/>
      <point x="345" y="451" type="line"/>
    </contour>
    <contour>
      <point x="201" y="531" type="line"/>
      <point x="201" y="505" type="line"/>
      <point x="154" y="453" type="line"/>
      <point x="50" y="447" type="line"/>
      <point x="0" y="522" type="line"/>
      <point x="34" y="592" type="line"/>
      <point x="203" y="630" type="line"/>
      <point x="203" y="609" type="line"/>
      <point x="92" y="564" type="line"/>
      <point x="92" y="508" type="line"/>
      <point x="132" y="488" type="line"/>
    </contour>
  </outline>
</glyph>
<glyph name="logicalnot" format="2">
  <advance width="595"/>
  <unicode hex="00AC"/>
  <outline>
    <contour>
      <point x="535" y="418" type="line"/>
      <point x="50" y="418" type="line"/>
      <point x="50" y="354" type="line"/>
      <point x="535" y="354" type="line"/>
    </contour>
    <contour>
      <point x="535" y="140" type="line"/>
      <point x="535" y="361" type="line"/>
      <point x="470" y="361" type="line"/>
      <point x="470" y="140" type="line"/>
    </contour>
  </outline>
</glyph>
<glyph name="registered" format="2">
  <advance width="637"/>
  <unicode hex="00AE"/>
  <anchor x="326" y="340" name="bottom"/>
  <outline>
    <contour>
      <point x="280" y="215" type="line"/>
      <point x="488" y="269" type="line"/>
      <point x="590" y="441" type="line"/>
      <point x="532" y="633" type="line"/>
      <point x="348" y="729" type="line"/>
      <point x="141" y="675" type="line"/>
      <point x="39" y="503" type="line"/>
      <point x="96" y="313" type="line"/>
    </contour>
    <contour>
      <point x="263" y="262" type="line"/>
      <point x="121" y="366" type="line"/>
      <point x="93" y="534" type="line"/>
      <point x="196" y="668" type="line"/>
      <point x="366" y="686" type="line"/>
      <point x="511" y="583" type="line"/>
      <point x="539" y="416" type="line"/>
      <point x="438" y="280" type="line"/>
    </contour>
    <contour>
      <point x="363" y="613" type="line"/>
      <point x="194" y="613" type="line"/>
      <point x="194" y="597" type="line"/>
      <point x="215" y="596" type="line"/>
      <point x="231" y="578" type="line"/>
      <point x="231" y="372" type="line"/>
      <point x="215" y="355" type="line"/>
      <point x="194" y="353" type="line"/>
      <point x="194" y="337" type="line"/>
      <point x="324" y="337" type="line"/>
      <point x="324" y="353" type="line"/>
      <point x="299" y="355" type="line"/>
      <point x="286" y="372" type="line"/>
      <point x="286" y="458" type="line"/>
      <point x="317" y="458" type="line"/>
      <point x="369" y="355" type="line"/>
      <point x="391" y="340" type="line"/>
      <point x="466" y="340" type="line"/>
      <point x="466" y="353" type="line"/>
      <point x="448" y="355" type="line"/>
      <point x="426" y="372" type="line"/>
      <point x="376" y="451" type="line"/>
      <point x="358" y="464" type="line"/>
      <point x="400" y="476" type="line"/>
      <point x="427" y="529" type="line"/>
      <point x="407" y="584" type="line"/>
    </contour>
    <contour>
      <point x="286" y="496" type="line"/>
      <point x="286" y="581" type="line"/>
      <point x="298" y="593" type="line"/>
      <point x="333" y="587" type="line"/>
      <point x="363" y="554" type="line"/>
      <point x="371" y="514" type="line"/>
      <point x="355" y="489" type="line"/>
      <point x="322" y="481" type="line"/>
    </contour>
  </outline>
</glyph>
<glyph name="degree" format="2">
  <advance width="260"/>
  <unicode hex="00B0"/>
  <outline>
    <contour>
      <point x="119" y="552" type="line"/>
      <point x="186" y="570" type="line"/>
      <point x="220" y="626" type="line"/>
      <point x="201" y="689" type="line"/>
      <point x="141" y="720" type="line"/>
      <point x="74" y="702" type="line"/>
      <point x="40" y="646" type="line"/>
      <point x="59" y="584" type="line"/>
    </contour>
    <contour>
      <point x="159" y="683" type="line"/>
      <point x="182" y="646" type="line"/>
      <point x="149" y="577" type="line"/>
      <point x="103" y="598" type="line"/>
      <point x="80" y="635" type="line"/>
      <point x="108" y="697" type="line"/>
    </contour>
  </outline>
</glyph>
<glyph name="twosuperior" format="2">
  <advance width="380"/>
  <unicode hex="00B2"/>
  <outline>
    <contour>
      <point x="50" y="582" type="line"/>
      <point x="76" y="578" type="line"/>
      <point x="124" y="667" type="line"/>
      <point x="198" y="667" type="line"/>
      <point x="243" y="606" type="line"/>
      <point x="208" y="513" type="line"/>
      <point x="40" y="346" type="line"/>
      <point x="40" y="324" type="line"/>
      <point x="314" y="324" type="line"/>
      <point x="336" y="440" type="line"/>
      <point x="317" y="440" type="line"/>
      <point x="281" y="372" type="line"/>
      <point x="120" y="375" type="line"/>
      <point x="139" y="401" type="line"/>
      <point x="315" y="531" type="line"/>
      <point x="330" y="634" type="line"/>
      <point x="272" y="706" type="line"/>
      <point x="166" y="714" type="line"/>
      <point x="60" y="675" type="line"/>
    </contour>
  </outline>
</glyph>
<glyph name="threesuperior" format="2">
  <advance width="384"/>
  <unicode hex="00B3"/>
  <outline>
    <contour>
      <point x="64" y="631" type="line"/>
      <point x="47" y="645" type="line"/>
      <point x="90" y="700" type="line"/>
      <point x="158" y="721" type="line"/>
      <point x="261" y="699" type="line"/>
      <point x="303" y="635" type="line"/>
      <point x="278" y="563" type="line"/>
      <point x="185" y="529" type="line"/>
      <point x="288" y="506" type="line"/>
      <point x="319" y="429" type="line"/>
      <point x="264" y="339" type="line"/>
      <point x="157" y="313" type="line"/>
      <point x="43" y="350" type="line"/>
      <point x="60" y="452" type="line"/>
      <point x="74" y="452" type="line"/>
      <point x="96" y="374" type="line"/>
      <point x="131" y="349" type="line"/>
      <point x="201" y="358" type="line"/>
      <point x="236" y="406" type="line"/>
      <point x="204" y="483" type="line"/>
      <point x="149" y="514" type="line"/>
      <point x="99" y="512" type="line"/>
      <point x="94" y="539" type="line"/>
      <point x="149" y="552" type="line"/>
      <point x="211" y="601" type="line"/>
      <point x="200" y="660" type="line"/>
      <point x="123" y="679" type="line"/>
    </contour>
  </outline>
</glyph>
<glyph name="micro" format="2">
  <advance width="693"/>
  <unicode hex="00B5"/>
  <outline>
    <contour>
      <point x="235" y="-240" type="line"/>
      <point x="235" y="3" type="line"/>
      <point x="309" y="-4" type="line"/>
      <point x="439" y="86" type="line"/>
      <point x="439" y="0" type="line"/>
      <point x="673" y="0" type="line"/>
      <point x="673" y="22" type="line"/>
      <point x="605" y="25" type="line"/>
      <point x="576" y="65" type="line"/>
      <point x="576" y="516" type="line"/>
      <point x="357" y="470" type="line"/>
      <point x="357" y="448" type="line"/>
      <point x="422" y="443" type="line"/>
      <point x="439" y="403" type="line"/>
      <point x="439" y="131" type="line"/>
      <point x="325" y="72" type="line"/>
      <point x="235" y="126" type="line"/>
      <point x="235" y="516" type="line"/>
      <point x="16" y="470" type="line"/>
      <point x="16" y="448" type="line"/>
      <point x="81" y="443" type="line"/>
      <point x="98" y="403" type="line"/>
      <point x="98" y="-240" type="line"/>
    </contour>
  </outline>
</glyph>
<glyph name="paragraph" format="2">
  <advance width="608"/>
  <unicode hex="00B6"/>
  <outline>
    <contour>
      <point x="263" y="705" type="line"/>
      <point x="193" y="705" type="line"/>
      <point x="89" y="656" type="line"/>
      <point x="20" y="528" type="line"/>
      <point x="50" y="392" type="line"/>
      <point x="156" y="308" type="line"/>
      <point x="261" y="308" type="line"/>
    </contour>
    <contour>
      <point x="258" y="705" type="line"/>
      <point x="258" y="-240" type="line"/>
      <point x="315" y="-240" type="line"/>
      <point x="315" y="705" type="line"/>
    </contour>
    <contour>
      <point x="391" y="705" type="line"/>
      <point x="391" y="-240" type="line"/>
      <point x="448" y="-240" type="line"/>
      <point x="448" y="628" type="line"/>
      <point x="489" y="670" type="line"/>
      <point x="543" y="673" type="line"/>
      <point x="543" y="705" type="line"/>
    </contour>
    <contour>
      <point x="271" y="705" type="line"/>
      <point x="271" y="655" type="line"/>
      <point x="463" y="655" type="line"/>
      <point x="463" y="705" type="line"/>
    </contour>
  </outline>
</glyph>
<glyph name="onesuperior" format="2">
  <advance width="331"/>
  <unicode hex="00B9"/>
  <outline>
    <contour>
      <point x="202" y="719" type="line"/>
      <point x="54" y="671" type="line"/>
      <point x="54" y="642" type="line"/>
      <point x="56" y="641" type="line"/>
      <point x="132" y="662" type="line"/>
      <point x="132" y="367" type="line"/>
      <point x="90" y="346" type="line"/>
      <point x="50" y="345" type="line"/>
      <point x="50" y="323" type="line"/>
      <point x="289" y="323" type="line"/>
      <point x="289" y="346" type="line"/>
      <point x="248" y="346" type="line"/>
      <point x="208" y="367" type="line"/>
      <point x="208" y="719" type="line"/>
    </contour>
  </outline>
</glyph>
<glyph name="ordmasculine" format="2">
  <advance width="350"/>
  <unicode hex="00BA"/>
  <outline>
    <contour>
      <point x="275" y="480" type="line"/>
      <point x="350" y="577" type="line"/>
      <point x="317" y="715" type="line"/>
      <point x="205" y="771" type="line"/>
      <point x="64" y="739" type="line"/>
      <point x="0" y="640" type="line"/>
      <point x="33" y="502" type="line"/>
      <point x="134" y="448" type="line"/>
    </contour>
    <contour>
      <point x="148" y="731" type="line"/>
      <point x="198" y="727" type="line"/>
      <point x="260" y="630" type="line"/>
      <point x="245" y="518" type="line"/>
      <point x="203" y="492" type="line"/>
      <point x="148" y="496" type="line"/>
      <point x="90" y="591" type="line"/>
      <point x="102" y="704" type="line"/>
    </contour>
  </outline>
</glyph>
<glyph name="AE" format="2">
  <advance width="1133"/>
  <unicode hex="00C6"/>
  <anchor x="421" y="0" name="bottom"/>
  <anchor x="584" y="10" name="ogonek"/>
  <anchor x="421" y="700" name="top"/>
  <anchor x="662" y="700" name="topleft"/>
  <outline>
    <contour>
      <point x="516" y="594" type="line"/>
      <point x="519" y="75" type="line"/>
      <point x="476" y="30" type="line"/>
      <point x="422" y="27" type="line"/>
      <point x="422" y="0" type="line"/>
      <point x="1048" y="0" type="line"/>
      <point x="1083" y="228" type="line"/>
      <point x="1058" y="228" type="line"/>
      <point x="985" y="67" type="line"/>
      <point x="925" y="40" type="line"/>
      <point x="702" y="38" type="line"/>
      <point x="666" y="82" type="line"/>
      <point x="666" y="337" type="line"/>
      <point x="877" y="336" type="line"/>
      <point x="920" y="304" type="line"/>
      <point x="935" y="230" type="line"/>
      <point x="958" y="230" type="line"/>
      <point x="958" y="487" type="line"/>
      <point x="935" y="487" type="line"/>
      <point x="920" y="413" type="line"/>
      <point x="875" y="382" type="line"/>
      <point x="875" y="381" type="line"/>
      <point x="666" y="380" type="line"/>
      <point x="666" y="629" type="line"/>
      <point x="702" y="673" type="line"/>
      <point x="905" y="671" type="line"/>
      <point x="965" y="625" type="line"/>
      <point x="1034" y="476" type="line"/>
      <point x="1059" y="476" type="line"/>
      <point x="1028" y="705" type="line"/>
      <point x="422" y="705" type="line"/>
      <point x="422" y="678" type="line"/>
      <point x="489" y="675" type="line"/>
      <point x="511" y="655" type="line"/>
      <point x="75" y="75" type="line"/>
      <point x="24" y="30" type="line"/>
      <point x="-45" y="27" type="line"/>
      <point x="-45" y="0" type="line"/>
      <point x="220" y="0" type="line"/>
      <point x="220" y="27" type="line"/>
      <point x="166" y="30" type="line"/>
      <point x="142" y="90" type="line"/>
    </contour>
    <contour>
      <point x="264" y="314" type="line"/>
      <point x="264" y="275" type="line"/>
      <point x="544" y="275" type="line"/>
      <point x="544" y="314" type="line"/>
    </contour>
  </outline>
</glyph>
<glyph name="Eth" format="2">
  <advance width="812"/>
  <unicode hex="00D0"/>
  <outline>
    <contour>
      <point x="25" y="372" type="line"/>
      <point x="25" y="323" type="line"/>
      <point x="375" y="323" type="line"/>
      <point x="375" y="372" type="line"/>
    </contour>
    <component base="D" xOffset="3"/>
  </outline>
</glyph>
<glyph name="Oslash" format="2">
  <advance width="860"/>
  <unicode hex="00D8"/>
  <outline>
    <contour>
      <point x="205" y="-9" type="line"/>
      <point x="686" y="715" type="line"/>
      <point x="626" y="715" type="line"/>
      <point x="141" y="-9" type="line"/>
    </contour>
    <component base="O"/>
  </outline>
</glyph>
<glyph name="Thorn" format="2">
  <advance width="691"/>
  <unicode hex="00DE"/>
  <outline>
    <contour>
      <point x="265" y="161" type="line"/>
      <point x="440" y="149" type="line"/>
      <point x="584" y="212" type="line"/>
      <point x="656" y="342" type="line"/>
      <point x="604" y="507" type="line"/>
      <point x="498" y="575" type="line"/>
      <point x="244" y="575" type="line"/>
      <point x="244" y="163" type="line"/>
    </contour>
    <contour>
      <point x="265" y="247" type="line"/>
      <point x="265" y="510" type="line"/>
      <point x="296" y="540" type="line"/>
      <point x="400" y="524" type="line"/>
      <point x="504" y="428" type="line"/>
      <point x="515" y="302" type="line"/>
      <point x="472" y="219" type="line"/>
      <point x="370" y="194" type="line"/>
    </contour>
    <component base="I"/>
  </outline>
</glyph>
<glyph name="germandbls" format="2">
  <advance width="705"/>
  <unicode hex="00DF"/>
  <outline>
    <contour>
      <point x="333" y="187" type="line"/>
      <point x="303" y="46" type="line"/>
      <point x="438" y="-15" type="line"/>
      <point x="615" y="38" type="line"/>
      <point x="655" y="204" type="line"/>
      <point x="557" y="353" type="line"/>
      <point x="431" y="427" type="line"/>
      <point x="541" y="501" type="line"/>
      <point x="587" y="609" type="line"/>
      <point x="541" y="710" type="line"/>
      <point x="410" y="771" type="line"/>
      <point x="195" y="729" type="line"/>
      <point x="112" y="589" type="line"/>
      <point x="112" y="60" type="line"/>
      <point x="73" y="30" type="line"/>
      <point x="25" y="27" type="line"/>
      <point x="25" y="0" type="line"/>
      <point x="249" y="0" type="line"/>
      <point x="249" y="647" type="line"/>
      <point x="318" y="728" type="line"/>
      <point x="432" y="679" type="line"/>
      <point x="451" y="537" type="line"/>
      <point x="332" y="426" type="line"/>
      <point x="331" y="375" type="line"/>
      <point x="452" y="314" type="line"/>
      <point x="533" y="165" type="line"/>
      <point x="487" y="32" type="line"/>
      <point x="373" y="68" type="line"/>
      <point x="351" y="187" type="line"/>
    </contour>
  </outline>
</glyph>
<glyph name="ae" format="2">
  <advance width="912"/>
  <unicode hex="00E6"/>
  <outline>
    <contour>
      <point x="373" y="247" type="line"/>
      <point x="376" y="125" type="line"/>
      <point x="284" y="49" type="line"/>
      <point x="199" y="88" type="line"/>
      <point x="199" y="182" type="line"/>
    </contour>
    <contour>
      <point x="503" y="63" type="line"/>
      <point x="483" y="373" type="line"/>
      <point x="427" y="495" type="line"/>
      <point x="245" y="514" type="line"/>
      <point x="68" y="434" type="line"/>
      <point x="140" y="285" type="line"/>
      <point x="162" y="285" type="line"/>
      <point x="203" y="449" type="line"/>
      <point x="319" y="461" type="line"/>
      <point x="369" y="387" type="line"/>
      <point x="372" y="281" type="line"/>
      <point x="105" y="220" type="line"/>
      <point x="50" y="111" type="line"/>
      <point x="131" y="-10" type="line"/>
      <point x="297" y="0" type="line"/>
      <point x="408" y="94" type="line"/>
    </contour>
    <contour>
      <point x="432" y="410" type="line"/>
      <point x="392" y="162" type="line"/>
      <point x="400" y="94" type="line"/>
      <point x="549" y="-12" type="line"/>
      <point x="769" y="5" type="line"/>
      <point x="872" y="149" type="line"/>
      <point x="856" y="164" type="line"/>
      <point x="704" y="63" type="line"/>
      <point x="575" y="104" type="line"/>
      <point x="501" y="260" type="line"/>
      <point x="532" y="432" type="line"/>
      <point x="605" y="475" type="line"/>
      <point x="692" y="455" type="line"/>
      <point x="739" y="378" type="line"/>
      <point x="742" y="327" type="line"/>
      <point x="505" y="328" type="line"/>
      <point x="505" y="293" type="line"/>
      <point x="873" y="293" type="line"/>
      <point x="841" y="430" type="line"/>
      <point x="692" y="517" type="line"/>
      <point x="468" y="480" type="line"/>
    </contour>
  </outline>
</glyph>
<glyph name="eth" format="2">
  <advance width="653"/>
  <unicode hex="00F0"/>
  <outline>
    <contour>
      <point x="420" y="674" type="line"/>
      <point x="218" y="772" type="line"/>
      <point x="190" y="720" type="line"/>
      <point x="319" y="663" type="line"/>
      <point x="432" y="545" type="line"/>
      <point x="482" y="265" type="line"/>
      <point x="451" y="111" type="line"/>
      <point x="313" y="67" type="line"/>
      <point x="191" y="189" type="line"/>
      <point x="172" y="352" type="line"/>
      <point x="233" y="438" type="line"/>
      <point x="337" y="456" type="line"/>
      <point x="482" y="376" type="line"/>
      <point x="456" y="477" type="line"/>
      <point x="310" y="518" type="line"/>
      <point x="111" y="441" type="line"/>
      <point x="44" y="254" type="line"/>
      <point x="92" y="69" type="line"/>
      <point x="297" y="-13" type="line"/>
      <point x="485" y="39" type="line"/>
      <point x="609" y="213" type="line"/>
      <point x="581" y="446" type="line"/>
    </contour>
    <contour>
      <point x="209" y="590" type="line"/>
      <point x="236" y="546" type="line"/>
      <point x="541" y="730" type="line"/>
      <point x="515" y="774" type="line"/>
    </contour>
  </outline>
</glyph>
<glyph name="oslash" format="2">
  <advance width="636"/>
  <unicode hex="00F8"/>
  <outline>
    <contour>
      <point x="151" y="-29" type="line"/>
      <point x="543" y="518" type="line"/>
      <point x="491" y="518" type="line"/>
      <point x="95" y="-29" type="line"/>
    </contour>
    <component base="o"/>
  </outline>
</glyph>
<glyph name="thorn" format="2">
  <advance width="695"/>
  <unicode hex="00FE"/>
  <outline>
    <contour>
      <point x="239" y="390" type="line"/>
      <point x="405" y="437" type="line"/>
      <point x="492" y="329" type="line"/>
      <point x="498" y="138" type="line"/>
      <point x="455" y="58" type="line"/>
      <point x="335" y="38" type="line"/>
      <point x="239" y="102" type="line"/>
      <point x="239" y="23" type="line"/>
      <point x="390" y="-13" type="line"/>
      <point x="587" y="88" type="line"/>
      <point x="651" y="253" type="line"/>
      <point x="611" y="424" type="line"/>
      <point x="418" y="518" type="line"/>
      <point x="239" y="431" type="line"/>
    </contour>
    <contour>
      <point x="246" y="771" type="line"/>
      <point x="22" y="723" type="line"/>
      <point x="22" y="695" type="line"/>
      <point x="92" y="706" type="line"/>
      <point x="109" y="666" type="line"/>
      <point x="109" y="-164" type="line"/>
      <point x="76" y="-209" type="line"/>
      <point x="22" y="-212" type="line"/>
      <point x="22" y="-240" type="line"/>
      <point x="373" y="-240" type="line"/>
      <point x="373" y="-212" type="line"/>
      <point x="299" y="-209" type="line"/>
      <point x="246" y="-164" type="line"/>
    </contour>
  </outline>
</glyph>
<glyph name="Hbar" format="2">
  <advance width="873"/>
  <unicode hex="0126"/>
  <outline>
    <contour>
      <point x="59" y="524" type="line"/>
      <point x="828" y="524" type="line"/>
      <point x="828" y="566" type="line"/>
      <point x="59" y="566" type="line"/>
    </contour>
    <component base="H"/>
  </outline>
</glyph>
<glyph name="hbar" format="2">
  <advance width="698"/>
  <unicode hex="0127"/>
  <outline>
    <contour>
      <point x="25" y="625" type="line"/>
      <point x="25" y="592" type="line"/>
      <point x="366" y="592" type="line"/>
      <point x="366" y="625" type="line"/>
    </contour>
    <component base="h" xOffset="6"/>
  </outline>
</glyph>
<glyph name="iogonek" format="2">
  <advance width="351"/>
  <unicode hex="012F"/>
  <outline>
    <contour>
      <point x="242" y="620" type="line"/>
      <point x="272" y="680" type="line"/>
      <point x="259" y="745" type="line"/>
      <point x="203" y="771" type="line"/>
      <point x="138" y="758" type="line"/>
      <point x="103" y="706" type="line"/>
      <point x="120" y="635" type="line"/>
      <point x="177" y="609" type="line"/>
    </contour>
    <component base="idotless"/>
    <component base="ogonekcomb" xOffset="49" yOffset="2"/>
  </outline>
</glyph>
<glyph name="idotless" format="2">
  <advance width="357"/>
  <unicode hex="0131"/>
  <anchor x="177" y="0" name="bottom"/>
  <anchor x="183" y="2" name="ogonek"/>
  <anchor x="177" y="500" name="top"/>
  <outline>
    <contour>
      <point x="254" y="518" type="line"/>
      <point x="229" y="518" type="line"/>
      <point x="40" y="468" type="line"/>
      <point x="40" y="441" type="line"/>
      <point x="102" y="450" type="line"/>
      <point x="117" y="416" type="line"/>
      <point x="117" y="75" type="line"/>
      <point x="84" y="30" type="line"/>
      <point x="30" y="27" type="line"/>
      <point x="30" y="0" type="line"/>
      <point x="341" y="0" type="line"/>
      <point x="341" y="27" type="line"/>
      <point x="287" y="30" type="line"/>
      <point x="254" y="75" type="line"/>
    </contour>
  </outline>
</glyph>
<glyph name="Lslash" format="2">
  <advance width="694"/>
  <unicode hex="0141"/>
  <outline>
    <contour>
      <point x="45" y="288" type="line"/>
      <point x="435" y="511" type="line"/>
      <point x="411" y="552" type="line"/>
      <point x="21" y="329" type="line"/>
    </contour>
    <component base="L" xOffset="20"/>
  </outline>
</glyph>
<glyph name="lslash" format="2">
  <advance width="371"/>
  <unicode hex="0142"/>
  <outline>
    <contour>
      <point x="47" y="289" type="line"/>
      <point x="345" y="472" type="line"/>
      <point x="325" y="503" type="line"/>
      <point x="27" y="320" type="line"/>
    </contour>
    <component base="l" xOffset="8"/>
  </outline>
</glyph>
<glyph name="Eng" format="2">
  <advance width="792"/>
  <unicode hex="014A"/>
  <anchor x="391" y="0" name="bottom"/>
  <anchor x="400" y="705" name="top"/>
  <outline>
    <contour>
      <point x="611" y="-37" type="line"/>
      <point x="592" y="-96" type="line"/>
      <point x="501" y="-153" type="line"/>
      <point x="514" y="-183" type="line"/>
      <point x="623" y="-146" type="line"/>
      <point x="680" y="-67" type="line"/>
      <point x="680" y="32" type="line"/>
      <point x="605" y="32" type="line"/>
    </contour>
    <component base="N"/>
  </outline>
</glyph>
<glyph name="eng" format="2">
  <advance width="660"/>
  <unicode hex="014B"/>
  <outline>
    <contour>
      <point x="457" y="-84" type="line"/>
      <point x="425" y="-154" type="line"/>
      <point x="362" y="-194" type="line"/>
      <point x="374" y="-217" type="line"/>
      <point x="530" y="-160" type="line"/>
      <point x="594" y="-45" type="line"/>
      <point x="594" y="404" type="line"/>
      <point x="542" y="493" type="line"/>
      <point x="413" y="514" type="line"/>
      <point x="254" y="414" type="line"/>
      <point x="254" y="514" type="line"/>
      <point x="30" y="464" type="line"/>
      <point x="30" y="437" type="line"/>
      <point x="100" y="448" type="line"/>
      <point x="117" y="408" type="line"/>
      <point x="117" y="75" type="line"/>
      <point x="84" y="30" type="line"/>
      <point x="30" y="27" type="line"/>
      <point x="30" y="0" type="line"/>
      <point x="339" y="0" type="line"/>
      <point x="339" y="27" type="line"/>
      <point x="285" y="30" type="line"/>
      <point x="254" y="75" type="line"/>
      <point x="254" y="389" type="line"/>
      <point x="387" y="438" type="line"/>
      <point x="457" y="364" type="line"/>
    </contour>
  </outline>
</glyph>
<glyph name="OE" format="2">
  <advance width="1155"/>
  <unicode hex="0152"/>
  <anchor x="886" y="0" name="bottom"/>
  <anchor x="801" y="350" name="center"/>
  <anchor x="1124" y="10" name="ogonek"/>
  <anchor x="886" y="705" name="top"/>
  <anchor x="417" y="705" name="topleft"/>
  <anchor x="1185" y="700" name="topright"/>
  <outline>
    <contour>
      <point x="1070" y="0" type="line"/>
      <point x="1105" y="228" type="line"/>
      <point x="1080" y="228" type="line"/>
      <point x="1007" y="67" type="line"/>
      <point x="947" y="40" type="line"/>
      <point x="724" y="38" type="line"/>
      <point x="688" y="82" type="line"/>
      <point x="688" y="337" type="line"/>
      <point x="899" y="336" type="line"/>
      <point x="942" y="304" type="line"/>
      <point x="957" y="230" type="line"/>
      <point x="980" y="230" type="line"/>
      <point x="980" y="487" type="line"/>
      <point x="957" y="487" type="line"/>
      <point x="942" y="413" type="line"/>
      <point x="897" y="382" type="line"/>
      <point x="897" y="381" type="line"/>
      <point x="688" y="380" type="line"/>
      <point x="688" y="629" type="line"/>
      <point x="724" y="673" type="line"/>
      <point x="927" y="671" type="line"/>
      <point x="987" y="625" type="line"/>
      <point x="1056" y="476" type="line"/>
      <point x="1081" y="476" type="line"/>
      <point x="1050" y="705" type="line"/>
      <point x="314" y="705" type="line"/>
      <point x="121" y="589" type="line"/>
      <point x="50" y="353" type="line"/>
      <point x="121" y="117" type="line"/>
      <point x="314" y="0" type="line"/>
    </contour>
    <contour>
      <point x="419" y="676" type="line"/>
      <point x="541" y="650" type="line"/>
      <point x="541" y="55" type="line"/>
      <point x="419" y="32" type="line"/>
      <point x="307" y="65" type="line"/>
      <point x="231" y="266" type="line"/>
      <point x="231" y="467" type="line"/>
      <point x="307" y="641" type="line"/>
    </contour>
  </outline>
</glyph>
<glyph name="Tbar" format="2">
  <advance width="696"/>
  <unicode hex="0166"/>
  <outline>
    <contour>
      <point x="564" y="440" type="line"/>
      <point x="132" y="440" type="line"/>
      <point x="132" y="391" type="line"/>
      <point x="564" y="391" type="line"/>
    </contour>
    <component base="T"/>
  </outline>
</glyph>
<glyph name="tbar" format="2">
  <advance width="450"/>
  <unicode hex="0167"/>
  <outline>
    <contour>
      <point x="26" y="365" type="line"/>
      <point x="26" y="333" type="line"/>
      <point x="388" y="333" type="line"/>
      <point x="388" y="365" type="line"/>
    </contour>
    <component base="t" xOffset="10"/>
  </outline>
</glyph>
<glyph name="Schwa" format="2">
  <advance width="782"/>
  <unicode hex="018F"/>
  <outline>
    <contour>
      <point x="593" y="282" type="line"/>
      <point x="40" y="282" type="line"/>
      <point x="80" y="97" type="line"/>
      <point x="290" y="-11" type="line"/>
      <point x="576" y="38" type="line"/>
      <point x="732" y="287" type="line"/>
      <point x="670" y="585" type="line"/>
      <point x="429" y="719" type="line"/>
      <point x="196" y="698" type="line"/>
      <point x="54" y="575" type="line"/>
      <point x="41" y="454" type="line"/>
      <point x="67" y="449" type="line"/>
      <point x="153" y="593" type="line"/>
      <point x="280" y="635" type="line"/>
      <point x="465" y="571" type="line"/>
      <point x="536" y="345" type="line"/>
      <point x="501" y="106" type="line"/>
      <point x="400" y="44" type="line"/>
      <point x="276" y="70" type="line"/>
      <point x="214" y="162" type="line"/>
      <point x="205" y="240" type="line"/>
      <point x="593" y="240" type="line"/>
    </contour>
  </outline>
</glyph>
<glyph name="florin" format="2">
  <advance width="627"/>
  <unicode hex="0192"/>
  <outline>
    <contour>
      <point x="236" y="70" type="line"/>
      <point x="213" y="29" type="line"/>
      <point x="121" y="46" type="line"/>
      <point x="91" y="188" type="line"/>
      <point x="69" y="188" type="line"/>
      <point x="26" y="57" type="line"/>
      <point x="175" y="-11" type="line"/>
      <point x="327" y="24" type="line"/>
      <point x="373" y="132" type="line"/>
      <point x="373" y="677" type="line"/>
      <point x="415" y="730" type="line"/>
      <point x="497" y="723" type="line"/>
      <point x="547" y="551" type="line"/>
      <point x="569" y="551" type="line"/>
      <point x="612" y="702" type="line"/>
      <point x="463" y="770" type="line"/>
      <point x="311" y="735" type="line"/>
      <point x="236" y="593" type="line"/>
    </contour>
    <contour>
      <point x="141" y="476" type="line"/>
      <point x="141" y="424" type="line"/>
      <point x="497" y="424" type="line"/>
      <point x="497" y="476" type="line"/>
    </contour>
  </outline>
</glyph>
<glyph name="jdotless" format="2">
  <advance width="356"/>
  <unicode hex="0237"/>
  <outline>
    <contour>
      <point x="105" y="444" type="line"/>
      <point x="122" y="414" type="line"/>
      <point x="122" y="0" type="line"/>
      <point x="97" y="-140" type="line"/>
      <point x="-17" y="-214" type="line"/>
      <point x="-5" y="-241" type="line"/>
      <point x="188" y="-146" type="line"/>
      <point x="259" y="-20" type="line"/>
      <point x="259" y="515" type="line"/>
      <point x="253" y="515" type="line"/>
      <point x="28" y="463" type="line"/>
      <point x="28" y="434" type="line"/>
    </contour>
  </outline>
</glyph>
<glyph name="schwa" format="2">
  <advance width="599"/>
  <unicode hex="0259"/>
  <outline>
    <contour>
      <point x="462" y="205" type="line"/>
      <point x="41" y="205" type="line"/>
      <point x="79" y="74" type="line"/>
      <point x="228" y="-13" type="line"/>
      <point x="442" y="24" type="line"/>
      <point x="555" y="204" type="line"/>
      <point x="510" y="420" type="line"/>
      <point x="346" y="517" type="line"/>
      <point x="155" y="499" type="line"/>
      <point x="42" y="355" type="line"/>
      <point x="61" y="336" type="line"/>
      <point x="208" y="434" type="line"/>
      <point x="339" y="400" type="line"/>
      <point x="413" y="246" type="line"/>
      <point x="390" y="72" type="line"/>
      <point x="315" y="26" type="line"/>
      <point x="225" y="47" type="line"/>
      <point x="179" y="118" type="line"/>
      <point x="175" y="171" type="line"/>
      <point x="462" y="171" type="line"/>
    </contour>
  </outline>
</glyph>
<glyph name="gravecomb" format="2">
  <advance width="330"/>
  <unicode hex="0300"/>
  <anchor x="195" y="505" name="_top"/>
  <anchor x="165" y="768" name="top"/>
  <outline>
    <contour>
      <point x="268" y="562" type="line"/>
      <point x="40" y="691" type="line"/>
      <point x="100" y="768" type="line"/>
      <point x="290" y="588" type="line"/>
    </contour>
  </outline>
</glyph>
<glyph name="circumflexcomb" format="2">
  <advance width="371"/>
  <unicode hex="0302"/>
  <anchor x="186" y="505" name="_top"/>
  <anchor x="186" y="760" name="top"/>
  <outline>
    <contour>
      <point x="40" y="606" type="line"/>
      <point x="168" y="760" type="line"/>
      <point x="203" y="760" type="line"/>
      <point x="331" y="606" type="line"/>
      <point x="309" y="584" type="line"/>
      <point x="185" y="675" type="line"/>
      <point x="61" y="584" type="line"/>
    </contour>
  </outline>
</glyph>
<glyph name="tildecomb" format="2">
  <advance width="417"/>
  <unicode hex="0303"/>
  <anchor x="209" y="505" name="_top"/>
  <anchor x="209" y="725" name="top"/>
  <outline>
    <contour>
      <point x="40" y="616" type="line"/>
      <point x="103" y="713" type="line"/>
      <point x="155" y="722" type="line"/>
      <point x="306" y="673" type="line"/>
      <point x="358" y="725" type="line"/>
      <point x="377" y="717" type="line"/>
      <point x="324" y="620" type="line"/>
      <point x="268" y="609" type="line"/>
      <point x="115" y="659" type="line"/>
      <point x="63" y="606" type="line"/>
    </contour>
  </outline>
</glyph>
<glyph name="macroncomb" format="2">
  <advance width="358"/>
  <unicode hex="0304"/>
  <anchor x="190" y="505" name="_top"/>
  <anchor x="180" y="672" name="top"/>
  <outline>
    <contour>
      <point x="318" y="682" type="line"/>
      <point x="40" y="682" type="line"/>
      <point x="40" y="620" type="line"/>
      <point x="318" y="620" type="line"/>
    </contour>
  </outline>
</glyph>
<glyph name="brevecomb" format="2">
  <advance width="366"/>
  <unicode hex="0306"/>
  <anchor x="183" y="505" name="_top"/>
  <anchor x="183" y="755" name="top"/>
  <outline>
    <contour>
      <point x="290" y="752" type="line"/>
      <point x="326" y="752" type="line"/>
      <point x="324" y="669" type="line"/>
      <point x="242" y="590" type="line"/>
      <point x="128" y="590" type="line"/>
      <point x="40" y="670" type="line"/>
      <point x="44" y="755" type="line"/>
      <point x="74" y="755" type="line"/>
      <point x="92" y="686" type="line"/>
      <point x="183" y="647" type="line"/>
      <point x="272" y="684" type="line"/>
    </contour>
  </outline>
</glyph>
<glyph name="dotaccentcomb" format="2">
  <advance width="228"/>
  <unicode hex="0307"/>
  <anchor x="116" y="500" name="_top"/>
  <anchor x="116" y="764" name="top"/>
  <outline>
    <contour>
      <point x="161" y="620" type="line"/>
      <point x="188" y="674" type="line"/>
      <point x="176" y="727" type="line"/>
      <point x="128" y="750" type="line"/>
      <point x="71" y="739" type="line"/>
      <point x="40" y="692" type="line"/>
      <point x="55" y="633" type="line"/>
      <point x="104" y="611" type="line"/>
    </contour>
  </outline>
</glyph>
<glyph name="ringcomb" format="2">
  <advance width="297"/>
  <unicode hex="030A"/>
  <anchor x="147" y="505" name="_top"/>
  <anchor x="147" y="776" name="top"/>
  <outline>
    <contour>
      <point x="135" y="569" type="line"/>
      <point x="216" y="590" type="line"/>
      <point x="257" y="657" type="line"/>
      <point x="234" y="732" type="line"/>
      <point x="162" y="769" type="line"/>
      <point x="81" y="748" type="line"/>
      <point x="40" y="681" type="line"/>
      <point x="63" y="607" type="line"/>
    </contour>
    <contour>
      <point x="183" y="725" type="line"/>
      <point x="211" y="681" type="line"/>
      <point x="172" y="609" type="line"/>
      <point x="117" y="613" type="line"/>
      <point x="89" y="657" type="line"/>
      <point x="125" y="731" type="line"/>
    </contour>
  </outline>
</glyph>
<glyph name="commaturnedabovecomb" format="2">
  <advance width="251"/>
  <unicode hex="0312"/>
  <anchor x="130" y="505" name="_top"/>
  <anchor x="130" y="888" name="top"/>
  <outline>
    <contour>
      <point x="77" y="755" type="line"/>
      <point x="58" y="675" type="line"/>
      <point x="71" y="607" type="line"/>
      <point x="128" y="576" type="line"/>
      <point x="188" y="598" type="line"/>
      <point x="211" y="652" type="line"/>
      <point x="187" y="706" type="line"/>
      <point x="123" y="718" type="line"/>
      <point x="120" y="746" type="line"/>
      <point x="201" y="819" type="line"/>
      <point x="177" y="838" type="line"/>
    </contour>
  </outline>
</glyph>
<glyph name="cedillacomb" format="2">
  <advance width="278"/>
  <unicode hex="0327"/>
  <anchor x="138" y="0" name="_bottom"/>
  <anchor x="138" y="-240" name="bottom"/>
  <outline>
    <contour>
      <point x="95" y="13" type="line"/>
      <point x="40" y="-111" type="line"/>
      <point x="64" y="-127" type="line"/>
      <point x="127" y="-93" type="line"/>
      <point x="171" y="-123" type="line"/>
      <point x="150" y="-185" type="line"/>
      <point x="42" y="-217" type="line"/>
      <point x="47" y="-240" type="line"/>
      <point x="163" y="-221" type="line"/>
      <point x="238" y="-147" type="line"/>
      <point x="200" y="-53" type="line"/>
      <point x="110" y="-55" type="line"/>
      <point x="146" y="13" type="line"/>
    </contour>
  </outline>
</glyph>
<glyph name="ogonekcomb" format="2">
  <advance width="316"/>
  <unicode hex="0328"/>
  <anchor x="164" y="0" name="_ogonek"/>
  <outline>
    <contour>
      <point x="135" y="10" type="line"/>
      <point x="40" y="-80" type="line"/>
      <point x="46" y="-181" type="line"/>
      <point x="150" y="-240" type="line"/>
      <point x="225" y="-210" type="line"/>
      <point x="276" y="-166" type="line"/>
      <point x="259" y="-150" type="line"/>
      <point x="199" y="-177" type="line"/>
      <point x="147" y="-167" type="line"/>
      <point x="112" y="-119" type="line"/>
      <point x="121" y="-62" type="line"/>
      <point x="180" y="10" type="line"/>
    </contour>
  </outline>
</glyph>
<glyph name="Germandbls" format="2">
  <advance width="789"/>
  <unicode hex="1E9E"/>
  <outline>
    <contour>
      <point x="25" y="27" type="line"/>
      <point x="25" y="0" type="line"/>
      <point x="270" y="0" type="line"/>
      <point x="270" y="705" type="line"/>
      <point x="25" y="705" type="line"/>
      <point x="25" y="678" type="line"/>
      <point x="79" y="675" type="line"/>
      <point x="122" y="635" type="line"/>
      <point x="122" y="70" type="line"/>
      <point x="79" y="30" type="line"/>
    </contour>
    <contour>
      <point x="365" y="352" type="line"/>
      <point x="481" y="372" type="line"/>
      <point x="577" y="337" type="line"/>
      <point x="636" y="253" type="line"/>
      <point x="636" y="118" type="line"/>
      <point x="586" y="46" type="line"/>
      <point x="483" y="39" type="line"/>
      <point x="416" y="96" type="line"/>
      <point x="391" y="224" type="line"/>
      <point x="367" y="224" type="line"/>
      <point x="326" y="46" type="line"/>
      <point x="514" y="-15" type="line"/>
      <point x="700" y="46" type="line"/>
      <point x="767" y="203" type="line"/>
      <point x="706" y="356" type="line"/>
      <point x="571" y="412" type="line"/>
      <point x="483" y="404" type="line"/>
      <point x="711" y="678" type="line"/>
      <point x="711" y="705" type="line"/>
      <point x="161" y="705" type="line"/>
      <point x="161" y="674" type="line"/>
      <point x="575" y="674" type="line"/>
      <point x="364" y="422" type="line"/>
      <point x="364" y="353" type="line"/>
    </contour>
  </outline>
</glyph>
<glyph name="emdash" format="2">
  <advance width="974"/>
  <unicode hex="2014"/>
  <outline>
    <contour>
      <point x="974" y="276" type="line"/>
      <point x="0" y="276" type="line"/>
      <point x="0" y="224" type="line"/>
      <point x="974" y="224" type="line"/>
    </contour>
  </outline>
</glyph>
<glyph name="dagger" format="2">
  <advance width="592"/>
  <unicode hex="2020"/>
  <outline>
    <contour>
      <point x="70" y="417" type="line"/>
      <point x="93" y="417" type="line"/>
      <point x="102" y="481" type="line"/>
      <point x="136" y="506" type="line"/>
      <point x="294" y="523" type="line"/>
      <point x="458" y="504" type="line"/>
      <point x="490" y="481" type="line"/>
      <point x="499" y="417" type="line"/>
      <point x="522" y="417" type="line"/>
      <point x="522" y="662" type="line"/>
      <point x="499" y="662" type="line"/>
      <point x="490" y="598" type="line"/>
      <point x="454" y="574" type="line"/>
      <point x="294" y="556" type="line"/>
      <point x="137" y="574" type="line"/>
      <point x="102" y="598" type="line"/>
      <point x="93" y="662" type="line"/>
      <point x="70" y="662" type="line"/>
    </contour>
    <contour>
      <point x="468" y="746" type="line"/>
      <point x="130" y="746" type="line"/>
      <point x="130" y="721" type="line"/>
      <point x="194" y="718" type="line"/>
      <point x="226" y="675" type="line"/>
      <point x="250" y="70" type="line"/>
      <point x="218" y="33" type="line"/>
      <point x="156" y="30" type="line"/>
      <point x="156" y="0" type="line"/>
      <point x="440" y="0" type="line"/>
      <point x="440" y="30" type="line"/>
      <point x="378" y="33" type="line"/>
      <point x="346" y="70" type="line"/>
      <point x="370" y="673" type="line"/>
      <point x="404" y="718" type="line"/>
      <point x="468" y="721" type="line"/>
    </contour>
  </outline>
</glyph>
<glyph name="daggerdbl" format="2">
  <advance width="592"/>
  <unicode hex="2021"/>
  <outline>
    <contour>
      <point x="464" y="740" type="line"/>
      <point x="126" y="740" type="line"/>
      <point x="126" y="718" type="line"/>
      <point x="190" y="715" type="line"/>
      <point x="222" y="672" type="line"/>
      <point x="246" y="67" type="line"/>
      <point x="214" y="30" type="line"/>
      <point x="152" y="27" type="line"/>
      <point x="152" y="0" type="line"/>
      <point x="436" y="0" type="line"/>
      <point x="436" y="27" type="line"/>
      <point x="374" y="30" type="line"/>
      <point x="342" y="67" type="line"/>
      <point x="366" y="670" type="line"/>
      <point x="400" y="715" type="line"/>
      <point x="464" y="718" type="line"/>
    </contour>
    <contour>
      <point x="70" y="417" type="line"/>
      <point x="93" y="417" type="line"/>
      <point x="102" y="481" type="line"/>
      <point x="136" y="506" type="line"/>
      <point x="294" y="523" type="line"/>
      <point x="458" y="504" type="line"/>
      <point x="490" y="481" type="line"/>
      <point x="499" y="417" type="line"/>
      <point x="522" y="417" type="line"/>
      <point x="522" y="662" type="line"/>
      <point x="499" y="662" type="line"/>
      <point x="490" y="598" type="line"/>
      <point x="454" y="574" type="line"/>
      <point x="294" y="556" type="line"/>
      <point x="137" y="574" type="line"/>
      <point x="102" y="598" type="line"/>
      <point x="93" y="662" type="line"/>
      <point x="70" y="662" type="line"/>
    </contour>
    <contour>
      <point x="70" y="117" type="line"/>
      <point x="93" y="117" type="line"/>
      <point x="102" y="181" type="line"/>
      <point x="136" y="206" type="line"/>
      <point x="294" y="223" type="line"/>
      <point x="458" y="204" type="line"/>
      <point x="490" y="181" type="line"/>
      <point x="499" y="117" type="line"/>
      <point x="522" y="117" type="line"/>
      <point x="522" y="362" type="line"/>
      <point x="499" y="362" type="line"/>
      <point x="490" y="298" type="line"/>
      <point x="454" y="274" type="line"/>
      <point x="294" y="256" type="line"/>
      <point x="137" y="274" type="line"/>
      <point x="102" y="298" type="line"/>
      <point x="93" y="362" type="line"/>
      <point x="70" y="362" type="line"/>
    </contour>
  </outline>
</glyph>
<glyph name="bullet" format="2">
  <advance width="493"/>
  <unicode hex="2022"/>
  <outline>
    <contour>
      <point x="339" y="150" type="line"/>
      <point x="228" y="127" type="line"/>
      <point x="129" y="172" type="line"/>
      <point x="100" y="285" type="line"/>
      <point x="155" y="380" type="line"/>
      <point x="272" y="403" type="line"/>
      <point x="368" y="358" type="line"/>
      <point x="393" y="249" type="line"/>
    </contour>
  </outline>
</glyph>
<glyph name="guilsinglleft" format="2">
  <advance width="373"/>
  <unicode hex="2039"/>
  <outline>
    <contour>
      <point x="145" y="254" type="line"/>
      <point x="212" y="346" type="line"/>
      <point x="313" y="490" type="line"/>
      <point x="289" y="508" type="line"/>
      <point x="162" y="376" type="line"/>
      <point x="0" y="264" type="line"/>
      <point x="0" y="237" type="line"/>
      <point x="162" y="125" type="line"/>
      <point x="289" y="-8" type="line"/>
      <point x="313" y="12" type="line"/>
      <point x="212" y="162" type="line"/>
    </contour>
  </outline>
</glyph>
<glyph name="fraction" format="2">
  <advance width="603"/>
  <unicode hex="2044"/>
  <outline>
    <contour>
      <point x="75" y="0" type="line"/>
      <point x="593" y="705" type="line"/>
      <point x="528" y="705" type="line"/>
      <point x="10" y="0" type="line"/>
    </contour>
  </outline>
</glyph>
<glyph name="zerosuperior" format="2">
  <advance width="469"/>
  <unicode hex="2070"/>
  <outline>
    <contour>
      <point x="303" y="319" type="line"/>
      <point x="175" y="319" type="line"/>
      <point x="65" y="445" type="line"/>
      <point x="65" y="591" type="line"/>
      <point x="175" y="705" type="line"/>
      <point x="303" y="705" type="line"/>
      <point x="404" y="603" type="line"/>
      <point x="404" y="446" type="line"/>
    </contour>
    <contour>
      <point x="234" y="680" type="line"/>
      <point x="189" y="669" type="line"/>
      <point x="147" y="502" type="line"/>
      <point x="190" y="358" type="line"/>
      <point x="238" y="344" type="line"/>
      <point x="278" y="354" type="line"/>
      <point x="322" y="504" type="line"/>
      <point x="277" y="669" type="line"/>
    </contour>
  </outline>
</glyph>
<glyph name="foursuperior" format="2">
  <advance width="433"/>
  <unicode hex="2074"/>
  <outline>
    <contour>
      <point x="214" y="300" type="line"/>
      <point x="214" y="143" type="line"/>
      <point x="105" y="143" type="line"/>
      <point x="105" y="173" type="line"/>
    </contour>
    <contour>
      <point x="30" y="109" type="line"/>
      <point x="214" y="109" type="line"/>
      <point x="214" y="55" type="line"/>
      <point x="176" y="29" type="line"/>
      <point x="145" y="28" type="line"/>
      <point x="145" y="0" type="line"/>
      <point x="368" y="0" type="line"/>
      <point x="368" y="28" type="line"/>
      <point x="334" y="29" type="line"/>
      <point x="299" y="56" type="line"/>
      <point x="299" y="109" type="line"/>
      <point x="375" y="109" type="line"/>
      <point x="375" y="143" type="line"/>
      <point x="299" y="143" type="line"/>
      <point x="299" y="383" type="line"/>
      <point x="233" y="383" type="line"/>
      <point x="30" y="143" type="line"/>
    </contour>
  </outline>
</glyph>
<glyph name="euro" format="2">
  <advance width="758"/>
  <unicode hex="20AC"/>
  <anchor x="453" y="0" name="bottom"/>
  <anchor x="423" y="700" name="top"/>
  <outline>
    <contour>
      <point x="701" y="654" type="line"/>
      <point x="513" y="719" type="line"/>
      <point x="273" y="676" type="line"/>
      <point x="99" y="463" type="line"/>
      <point x="148" y="149" type="line"/>
      <point x="368" y="-14" type="line"/>
      <point x="578" y="6" type="line"/>
      <point x="693" y="140" type="line"/>
      <point x="718" y="246" type="line"/>
      <point x="689" y="249" type="line"/>
      <point x="618" y="117" type="line"/>
      <point x="456" y="71" type="line"/>
      <point x="332" y="162" type="line"/>
      <point x="262" y="373" type="line"/>
      <point x="296" y="592" type="line"/>
      <point x="403" y="658" type="line"/>
      <point x="598" y="612" type="line"/>
      <point x="665" y="467" type="line"/>
      <point x="690" y="467" type="line"/>
    </contour>
    <contour>
      <point x="475" y="428" type="line"/>
      <point x="31" y="427" type="line"/>
      <point x="31" y="368" type="line"/>
      <point x="466" y="368" type="line"/>
    </contour>
    <contour>
      <point x="474" y="302" type="line"/>
      <point x="30" y="301" type="line"/>
      <point x="30" y="242" type="line"/>
      <point x="465" y="242" type="line"/>
    </contour>
  </outline>
</glyph>
<glyph name="trademark" format="2">
  <advance width="955"/>
  <unicode hex="2122"/>
  <anchor x="-82" y="0" name="bottom"/>
  <anchor x="-82" y="700" name="top"/>
  <outline>
    <contour>
      <point x="380" y="705" type="line"/>
      <point x="45" y="705" type="line"/>
      <point x="30" y="558" type="line"/>
      <point x="48" y="558" type="line"/>
      <point x="82" y="657" type="line"/>
      <point x="113" y="679" type="line"/>
      <point x="172" y="679" type="line"/>
      <point x="172" y="370" type="line"/>
      <point x="148" y="346" type="line"/>
      <point x="111" y="345" type="line"/>
      <point x="111" y="325" type="line"/>
      <point x="313" y="325" type="line"/>
      <point x="313" y="345" type="line"/>
      <point x="276" y="346" type="line"/>
      <point x="253" y="370" type="line"/>
      <point x="253" y="679" type="line"/>
      <point x="310" y="679" type="line"/>
      <point x="341" y="657" type="line"/>
      <point x="375" y="558" type="line"/>
      <point x="395" y="558" type="line"/>
    </contour>
    <contour>
      <point x="925" y="705" type="line"/>
      <point x="788" y="705" type="line"/>
      <point x="681" y="435" type="line"/>
      <point x="570" y="705" type="line"/>
      <point x="427" y="705" type="line"/>
      <point x="427" y="686" type="line"/>
      <point x="455" y="685" type="line"/>
      <point x="479" y="660" type="line"/>
      <point x="480" y="381" type="line"/>
      <point x="459" y="346" type="line"/>
      <point x="428" y="345" type="line"/>
      <point x="428" y="325" type="line"/>
      <point x="562" y="325" type="line"/>
      <point x="562" y="345" type="line"/>
      <point x="530" y="346" type="line"/>
      <point x="510" y="381" type="line"/>
      <point x="508" y="647" type="line"/>
      <point x="650" y="325" type="line"/>
      <point x="676" y="325" type="line"/>
      <point x="797" y="647" type="line"/>
      <point x="797" y="370" type="line"/>
      <point x="775" y="346" type="line"/>
      <point x="744" y="345" type="line"/>
      <point x="744" y="325" type="line"/>
      <point x="925" y="325" type="line"/>
      <point x="925" y="345" type="line"/>
      <point x="894" y="346" type="line"/>
      <point x="872" y="370" type="line"/>
      <point x="872" y="660" type="line"/>
      <point x="894" y="685" type="line"/>
      <point x="925" y="686" type="line"/>
    </contour>
  </outline>
</glyph>
<glyph name="upArrow" format="2">
  <advance width="614"/>
  <unicode hex="2191"/>
  <outline>
    <contour>
      <point x="50" y="404" type="line"/>
      <point x="70" y="385" type="line"/>
      <point x="172" y="428" type="line"/>
      <point x="271" y="521" type="line"/>
      <point x="269" y="29" type="line"/>
      <point x="344" y="30" type="line"/>
      <point x="345" y="521" type="line"/>
      <point x="441" y="428" type="line"/>
      <point x="545" y="384" type="line"/>
      <point x="564" y="404" type="line"/>
      <point x="451" y="501" type="line"/>
      <point x="325" y="705" type="line"/>
      <point x="289" y="705" type="line"/>
      <point x="163" y="501" type="line"/>
    </contour>
  </outline>
</glyph>
<glyph name="leftRightArrow" format="2">
  <advance width="975"/>
  <unicode hex="2194"/>
  <outline>
    <contour>
      <point x="634" y="615" type="line"/>
      <point x="615" y="595" type="line"/>
      <point x="658" y="493" type="line"/>
      <point x="751" y="395" type="line"/>
      <point x="224" y="395" type="line"/>
      <point x="317" y="493" type="line"/>
      <point x="360" y="595" type="line"/>
      <point x="341" y="615" type="line"/>
      <point x="244" y="502" type="line"/>
      <point x="40" y="376" type="line"/>
      <point x="40" y="340" type="line"/>
      <point x="244" y="214" type="line"/>
      <point x="341" y="101" type="line"/>
      <point x="361" y="120" type="line"/>
      <point x="317" y="224" type="line"/>
      <point x="224" y="320" type="line"/>
      <point x="751" y="320" type="line"/>
      <point x="658" y="224" type="line"/>
      <point x="614" y="120" type="line"/>
      <point x="634" y="101" type="line"/>
      <point x="731" y="214" type="line"/>
      <point x="935" y="340" type="line"/>
      <point x="935" y="376" type="line"/>
      <point x="731" y="502" type="line"/>
    </contour>
  </outline>
</glyph>
<glyph name="notequal" format="2">
  <advance width="605"/>
  <unicode hex="2260"/>
  <outline>
    <contour>
      <point x="207" y="81" type="line"/>
      <point x="456" y="530" type="line"/>
      <point x="402" y="560" type="line"/>
      <point x="154" y="111" type="line"/>
    </contour>
    <component base="equal"/>
  </outline>
</glyph>
<glyph name="greaterequal" format="2">
  <advance width="530"/>
  <unicode hex="2265"/>
  <outline>
    <contour>
      <point x="484" y="373" type="line"/>
      <point x="40" y="555" type="line"/>
      <point x="40" y="495" type="line"/>
      <point x="374" y="362" type="line"/>
      <point x="40" y="241" type="line"/>
      <point x="40" y="181" type="line"/>
      <point x="484" y="351" type="line"/>
    </contour>
    <contour>
      <point x="484" y="137" type="line"/>
      <point x="40" y="137" type="line"/>
      <point x="40" y="83" type="line"/>
      <point x="484" y="83" type="line"/>
    </contour>
  </outline>
</glyph>
<glyph name="fi" format="2">
  <advance width="801"/>
  <unicode hex="FB01"/>
  <outline>
    <contour>
      <point x="130" y="75" type="line"/>
      <point x="97" y="30" type="line"/>
      <point x="43" y="27" type="line"/>
      <point x="43" y="0" type="line"/>
      <point x="395" y="0" type="line"/>
      <point x="395" y="27" type="line"/>
      <point x="310" y="30" type="line"/>
      <point x="267" y="75" type="line"/>
      <point x="267" y="647" type="line"/>
      <point x="379" y="739" type="line"/>
      <point x="517" y="713" type="line"/>
      <point x="575" y="548" type="line"/>
      <point x="591" y="548" type="line"/>
      <point x="646" y="702" type="line"/>
      <point x="487" y="770" type="line"/>
      <point x="245" y="751" type="line"/>
      <point x="130" y="623" type="line"/>
    </contour>
    <contour>
      <point x="70" y="505" type="line"/>
      <point x="70" y="473" type="line"/>
      <point x="494" y="473" type="line"/>
      <point x="547" y="468" type="line"/>
      <point x="561" y="440" type="line"/>
      <point x="561" y="80" type="line"/>
      <point x="528" y="35" type="line"/>
      <point x="474" y="32" type="line"/>
      <point x="474" y="0" type="line"/>
      <point x="785" y="0" type="line"/>
      <point x="785" y="32" type="line"/>
      <point x="731" y="35" type="line"/>
      <point x="698" y="80" type="line"/>
      <point x="698" y="505" type="line"/>
    </contour>
  </outline>
</glyph>
<glyph name="fl" format="2">
  <advance width="769"/>
  <unicode hex="FB02"/>
  <outline>
    <contour>
      <point x="657" y="70" type="line"/>
      <point x="657" y="770" type="line"/>
      <point x="503" y="720" type="line"/>
      <point x="520" y="673" type="line"/>
      <point x="520" y="70" type="line"/>
      <point x="487" y="30" type="line"/>
      <point x="433" y="27" type="line"/>
      <point x="433" y="0" type="line"/>
      <point x="744" y="0" type="line"/>
      <point x="744" y="27" type="line"/>
      <point x="690" y="30" type="line"/>
    </contour>
    <contour>
      <point x="130" y="70" type="line"/>
      <point x="97" y="30" type="line"/>
      <point x="43" y="27" type="line"/>
      <point x="43" y="0" type="line"/>
      <point x="375" y="0" type="line"/>
      <point x="375" y="27" type="line"/>
      <point x="300" y="30" type="line"/>
      <point x="267" y="70" type="line"/>
      <point x="267" y="687" type="line"/>
      <point x="351" y="730" type="line"/>
      <point x="458" y="712" type="line"/>
      <point x="521" y="559" type="line"/>
      <point x="543" y="559" type="line"/>
      <point x="596" y="734" type="line"/>
      <point x="395" y="770" type="line"/>
      <point x="186" y="719" type="line"/>
      <point x="130" y="583" type="line"/>
    </contour>
    <contour>
      <point x="71" y="506" type="line"/>
      <point x="71" y="473" type="line"/>
      <point x="385" y="473" type="line"/>
      <point x="385" y="505" type="line"/>
    </contour>
  </outline>
</glyph>
<glyph name="at.case" format="2">
  <advance width="812"/>
  <outline>
    <contour>
      <point x="549" y="229" type="line"/>
      <point x="521" y="257" type="line"/>
      <point x="533" y="348" type="line"/>
      <point x="563" y="528" type="line"/>
      <point x="523" y="533" type="line"/>
      <point x="507" y="505" type="line"/>
      <point x="466" y="528" type="line"/>
      <point x="376" y="539" type="line"/>
      <point x="263" y="459" type="line"/>
      <point x="226" y="289" type="line"/>
      <point x="291" y="195" type="line"/>
      <point x="374" y="189" type="line"/>
      <point x="448" y="261" type="line"/>
      <point x="465" y="201" type="line"/>
      <point x="548" y="170" type="line"/>
      <point x="682" y="210" type="line"/>
      <point x="762" y="383" type="line"/>
      <point x="709" y="574" type="line"/>
      <point x="458" y="699" type="line"/>
      <point x="185" y="630" type="line"/>
      <point x="50" y="382" type="line"/>
      <point x="125" y="126" type="line"/>
      <point x="368" y="7" type="line"/>
      <point x="620" y="58" type="line"/>
      <point x="609" y="104" type="line"/>
      <point x="349" y="88" type="line"/>
      <point x="178" y="209" type="line"/>
      <point x="146" y="415" type="line"/>
      <point x="264" y="598" type="line"/>
      <point x="476" y="626" type="line"/>
      <point x="663" y="496" type="line"/>
      <point x="677" y="360" type="line"/>
      <point x="602" y="229" type="line"/>
    </contour>
    <contour>
      <point x="472" y="437" type="line"/>
      <point x="449" y="339" type="line"/>
      <point x="385" y="258" type="line"/>
      <point x="349" y="269" type="line"/>
      <point x="317" y="340" type="line"/>
      <point x="319" y="437" type="line"/>
      <point x="368" y="491" type="line"/>
      <point x="427" y="494" type="line"/>
    </contour>
  </outline>
</glyph>
<glyph name="brevecomb.case" format="2">
  <advance width="364"/>
  <anchor x="183" y="505" name="_top"/>
  <anchor x="183" y="700" name="top"/>
  <outline>
    <contour>
      <point x="293" y="736" type="line"/>
      <point x="324" y="736" type="line"/>
      <point x="324" y="657" type="line"/>
      <point x="242" y="588" type="line"/>
      <point x="128" y="588" type="line"/>
      <point x="40" y="658" type="line"/>
      <point x="46" y="739" type="line"/>
      <point x="72" y="739" type="line"/>
      <point x="86" y="675" type="line"/>
      <point x="183" y="636" type="line"/>
      <point x="278" y="673" type="line"/>
    </contour>
  </outline>
</glyph>
<glyph name="caroncomb.alt" format="2">
  <advance width="175"/>
  <anchor x="47" y="505" name="_topright"/>
  <outline>
    <contour>
      <point x="49" y="723" type="line"/>
      <point x="60" y="751" type="line"/>
      <point x="95" y="769" type="line"/>
      <point x="125" y="767" type="line"/>
      <point x="148" y="751" type="line"/>
      <point x="150" y="716" type="line"/>
      <point x="79" y="515" type="line"/>
      <point x="42" y="515" type="line"/>
    </contour>
  </outline>
</glyph>
<glyph name="circumflexcomb.case" format="2">
  <advance width="371"/>
  <anchor x="185" y="505" name="_top"/>
  <anchor x="196" y="745" name="top"/>
  <outline>
    <contour>
      <point x="40" y="582" type="line"/>
      <point x="168" y="729" type="line"/>
      <point x="203" y="729" type="line"/>
      <point x="331" y="582" type="line"/>
      <point x="308" y="560" type="line"/>
      <point x="185" y="654" type="line"/>
      <point x="62" y="559" type="line"/>
    </contour>
  </outline>
</glyph>
<glyph name="f_b" format="2">
  <advance width="1106"/>
  <outline>
    <contour>
      <point x="67" y="505" type="line"/>
      <point x="67" y="473" type="line"/>
      <point x="393" y="473" type="line"/>
      <point x="393" y="505" type="line"/>
    </contour>
    <contour>
      <point x="658" y="770" type="line"/>
      <point x="504" y="703" type="line"/>
      <point x="521" y="663" type="line"/>
      <point x="521" y="50" type="line"/>
      <point x="658" y="-4" type="line"/>
      <point x="797" y="-14" type="line"/>
      <point x="999" y="87" type="line"/>
      <point x="1062" y="259" type="line"/>
      <point x="1022" y="429" type="line"/>
      <point x="849" y="518" type="line"/>
      <point x="658" y="440" type="line"/>
    </contour>
    <contour>
      <point x="658" y="108" type="line"/>
      <point x="658" y="401" type="line"/>
      <point x="802" y="443" type="line"/>
      <point x="903" y="335" type="line"/>
      <point x="909" y="138" type="line"/>
      <point x="866" y="58" type="line"/>
      <point x="740" y="43" type="line"/>
    </contour>
    <contour>
      <point x="130" y="70" type="line"/>
      <point x="97" y="30" type="line"/>
      <point x="43" y="27" type="line"/>
      <point x="43" y="0" type="line"/>
      <point x="375" y="0" type="line"/>
      <point x="375" y="27" type="line"/>
      <point x="300" y="30" type="line"/>
      <point x="267" y="70" type="line"/>
      <point x="267" y="667" type="line"/>
      <point x="350" y="730" type="line"/>
      <point x="478" y="720" type="line"/>
      <point x="531" y="559" type="line"/>
      <point x="553" y="559" type="line"/>
      <point x="606" y="734" type="line"/>
      <point x="388" y="770" type="line"/>
      <point x="186" y="719" type="line"/>
      <point x="130" y="583" type="line"/>
    </contour>
  </outline>
</glyph>
<glyph name="f_f" format="2">
  <advance width="843"/>
  <outline>
    <contour>
      <point x="130" y="70" type="line"/>
      <point x="97" y="30" type="line"/>
      <point x="43" y="27" type="line"/>
      <point x="43" y="0" type="line"/>
      <point x="375" y="0" type="line"/>
      <point x="375" y="27" type="line"/>
      <point x="300" y="30" type="line"/>
      <point x="267" y="70" type="line"/>
      <point x="267" y="667" type="line"/>
      <point x="364" y="730" type="line"/>
      <point x="477" y="722" type="line"/>
      <point x="530" y="559" type="line"/>
      <point x="552" y="559" type="line"/>
      <point x="605" y="734" type="line"/>
      <point x="388" y="770" type="line"/>
      <point x="186" y="719" type="line"/>
      <point x="130" y="583" type="line"/>
    </contour>
    <contour>
      <point x="527" y="70" type="line"/>
      <point x="494" y="30" type="line"/>
      <point x="440" y="27" type="line"/>
      <point x="440" y="0" type="line"/>
      <point x="792" y="0" type="line"/>
      <point x="792" y="27" type="line"/>
      <point x="707" y="30" type="line"/>
      <point x="664" y="70" type="line"/>
      <point x="664" y="677" type="line"/>
      <point x="706" y="730" type="line"/>
      <point x="788" y="723" type="line"/>
      <point x="838" y="538" type="line"/>
      <point x="860" y="538" type="line"/>
      <point x="913" y="702" type="line"/>
      <point x="754" y="770" type="line"/>
      <point x="602" y="735" type="line"/>
      <point x="527" y="593" type="line"/>
    </contour>
    <contour>
      <point x="70" y="473" type="line"/>
      <point x="791" y="473" type="line"/>
      <point x="791" y="505" type="line"/>
      <point x="70" y="506" type="line"/>
    </contour>
  </outline>
</glyph>
<glyph name="f_f_b" format="2">
  <advance width="1490"/>
  <anchor x="1082" y="0" name="bottom"/>
  <anchor x="1082" y="770" name="top"/>
  <outline>
    <contour>
      <point x="130" y="70" type="line"/>
      <point x="97" y="30" type="line"/>
      <point x="43" y="27" type="line"/>
      <point x="43" y="0" type="line"/>
      <point x="375" y="0" type="line"/>
      <point x="375" y="27" type="line"/>
      <point x="300" y="30" type="line"/>
      <point x="267" y="70" type="line"/>
      <point x="267" y="687" type="line"/>
      <point x="344" y="730" type="line"/>
      <point x="461" y="722" type="line"/>
      <point x="514" y="549" type="line"/>
      <point x="536" y="549" type="line"/>
      <point x="589" y="724" type="line"/>
      <point x="388" y="770" type="line"/>
      <point x="186" y="719" type="line"/>
      <point x="130" y="583" type="line"/>
    </contour>
    <contour>
      <point x="70" y="506" type="line"/>
      <point x="70" y="473" type="line"/>
      <point x="777" y="473" type="line"/>
      <point x="777" y="505" type="line"/>
    </contour>
    <contour>
      <point x="1042" y="770" type="line"/>
      <point x="888" y="703" type="line"/>
      <point x="905" y="663" type="line"/>
      <point x="905" y="50" type="line"/>
      <point x="1042" y="-4" type="line"/>
      <point x="1181" y="-14" type="line"/>
      <point x="1383" y="87" type="line"/>
      <point x="1446" y="259" type="line"/>
      <point x="1406" y="429" type="line"/>
      <point x="1233" y="518" type="line"/>
      <point x="1042" y="440" type="line"/>
    </contour>
    <contour>
      <point x="1042" y="108" type="line"/>
      <point x="1042" y="401" type="line"/>
      <point x="1186" y="443" type="line"/>
      <point x="1287" y="335" type="line"/>
      <point x="1293" y="138" type="line"/>
      <point x="1250" y="58" type="line"/>
      <point x="1124" y="43" type="line"/>
    </contour>
    <contour>
      <point x="514" y="70" type="line"/>
      <point x="481" y="30" type="line"/>
      <point x="427" y="27" type="line"/>
      <point x="427" y="0" type="line"/>
      <point x="759" y="0" type="line"/>
      <point x="759" y="27" type="line"/>
      <point x="684" y="30" type="line"/>
      <point x="651" y="70" type="line"/>
      <point x="651" y="687" type="line"/>
      <point x="734" y="730" type="line"/>
      <point x="862" y="720" type="line"/>
      <point x="915" y="559" type="line"/>
      <point x="937" y="559" type="line"/>
      <point x="990" y="734" type="line"/>
      <point x="772" y="770" type="line"/>
      <point x="570" y="719" type="line"/>
      <point x="514" y="583" type="line"/>
    </contour>
  </outline>
</glyph>
<glyph name="f_f_i" format="2">
  <advance width="1185"/>
  <outline>
    <contour>
      <point x="1082" y="505" type="line"/>
      <point x="70" y="506" type="line"/>
      <point x="70" y="473" type="line"/>
      <point x="877" y="473" type="line"/>
      <point x="931" y="468" type="line"/>
      <point x="945" y="440" type="line"/>
      <point x="945" y="75" type="line"/>
      <point x="912" y="35" type="line"/>
      <point x="858" y="32" type="line"/>
      <point x="858" y="0" type="line"/>
      <point x="1169" y="0" type="line"/>
      <point x="1169" y="32" type="line"/>
      <point x="1115" y="35" type="line"/>
      <point x="1082" y="75" type="line"/>
    </contour>
    <contour>
      <point x="130" y="70" type="line"/>
      <point x="97" y="30" type="line"/>
      <point x="43" y="27" type="line"/>
      <point x="43" y="0" type="line"/>
      <point x="375" y="0" type="line"/>
      <point x="375" y="27" type="line"/>
      <point x="300" y="30" type="line"/>
      <point x="267" y="70" type="line"/>
      <point x="267" y="687" type="line"/>
      <point x="344" y="730" type="line"/>
      <point x="461" y="722" type="line"/>
      <point x="514" y="549" type="line"/>
      <point x="536" y="549" type="line"/>
      <point x="589" y="714" type="line"/>
      <point x="388" y="770" type="line"/>
      <point x="186" y="719" type="line"/>
      <point x="130" y="583" type="line"/>
    </contour>
    <contour>
      <point x="514" y="70" type="line"/>
      <point x="481" y="30" type="line"/>
      <point x="427" y="27" type="line"/>
      <point x="427" y="0" type="line"/>
      <point x="759" y="0" type="line"/>
      <point x="759" y="27" type="line"/>
      <point x="684" y="30" type="line"/>
      <point x="651" y="70" type="line"/>
      <point x="650" y="647" type="line"/>
      <point x="762" y="739" type="line"/>
      <point x="900" y="713" type="line"/>
      <point x="952" y="548" type="line"/>
      <point x="974" y="548" type="line"/>
      <point x="1029" y="702" type="line"/>
      <point x="870" y="770" type="line"/>
      <point x="684" y="770" type="line"/>
      <point x="560" y="702" type="line"/>
      <point x="514" y="583" type="line"/>
    </contour>
  </outline>
</glyph>
<glyph name="f_h" format="2">
  <advance width="1100"/>
  <outline>
    <contour>
      <point x="1030" y="30" type="line"/>
      <point x="997" y="70" type="line"/>
      <point x="997" y="404" type="line"/>
      <point x="945" y="493" type="line"/>
      <point x="816" y="514" type="line"/>
      <point x="657" y="414" type="line"/>
      <point x="657" y="770" type="line"/>
      <point x="503" y="720" type="line"/>
      <point x="520" y="673" type="line"/>
      <point x="520" y="70" type="line"/>
      <point x="487" y="30" type="line"/>
      <point x="433" y="27" type="line"/>
      <point x="433" y="0" type="line"/>
      <point x="744" y="0" type="line"/>
      <point x="744" y="27" type="line"/>
      <point x="690" y="30" type="line"/>
      <point x="657" y="70" type="line"/>
      <point x="657" y="389" type="line"/>
      <point x="790" y="438" type="line"/>
      <point x="860" y="364" type="line"/>
      <point x="860" y="70" type="line"/>
      <point x="827" y="30" type="line"/>
      <point x="773" y="27" type="line"/>
      <point x="773" y="0" type="line"/>
      <point x="1084" y="0" type="line"/>
      <point x="1084" y="27" type="line"/>
    </contour>
    <contour>
      <point x="130" y="70" type="line"/>
      <point x="97" y="30" type="line"/>
      <point x="43" y="27" type="line"/>
      <point x="43" y="0" type="line"/>
      <point x="375" y="0" type="line"/>
      <point x="375" y="27" type="line"/>
      <point x="300" y="30" type="line"/>
      <point x="267" y="70" type="line"/>
      <point x="267" y="687" type="line"/>
      <point x="354" y="730" type="line"/>
      <point x="471" y="712" type="line"/>
      <point x="524" y="559" type="line"/>
      <point x="546" y="559" type="line"/>
      <point x="599" y="734" type="line"/>
      <point x="398" y="770" type="line"/>
      <point x="186" y="719" type="line"/>
      <point x="130" y="583" type="line"/>
    </contour>
    <contour>
      <point x="70" y="506" type="line"/>
      <point x="70" y="473" type="line"/>
      <point x="385" y="473" type="line"/>
      <point x="385" y="505" type="line"/>
    </contour>
  </outline>
</glyph>
<glyph name="f_j" format="2">
  <advance width="796"/>
  <outline>
    <contour>
      <point x="130" y="70" type="line"/>
      <point x="97" y="30" type="line"/>
      <point x="43" y="27" type="line"/>
      <point x="43" y="0" type="line"/>
      <point x="395" y="0" type="line"/>
      <point x="395" y="27" type="line"/>
      <point x="310" y="30" type="line"/>
      <point x="267" y="70" type="line"/>
      <point x="267" y="647" type="line"/>
      <point x="379" y="739" type="line"/>
      <point x="517" y="713" type="line"/>
      <point x="575" y="548" type="line"/>
      <point x="591" y="548" type="line"/>
      <point x="646" y="702" type="line"/>
      <point x="487" y="770" type="line"/>
      <point x="245" y="751" type="line"/>
      <point x="130" y="623" type="line"/>
    </contour>
    <contour>
      <point x="68" y="505" type="line"/>
      <point x="68" y="473" type="line"/>
      <point x="494" y="473" type="line"/>
      <point x="547" y="468" type="line"/>
      <point x="561" y="440" type="line"/>
      <point x="562" y="0" type="line"/>
      <point x="537" y="-140" type="line"/>
      <point x="423" y="-214" type="line"/>
      <point x="435" y="-241" type="line"/>
      <point x="628" y="-146" type="line"/>
      <point x="699" y="-20" type="line"/>
      <point x="698" y="-20" type="line"/>
      <point x="698" y="505" type="line"/>
    </contour>
    <contour>
      <point x="262" y="513" type="move"/>
    </contour>
  </outline>
</glyph>
<glyph name="five.osf" format="2">
  <advance width="599"/>
  <outline>
    <contour>
      <point x="75" y="7" type="line"/>
      <point x="40" y="-165" type="line"/>
      <point x="236" y="-240" type="line"/>
      <point x="451" y="-194" type="line"/>
      <point x="556" y="-23" type="line"/>
      <point x="519" y="172" type="line"/>
      <point x="326" y="264" type="line"/>
      <point x="116" y="183" type="line"/>
      <point x="151" y="400" type="line"/>
      <point x="499" y="400" type="line"/>
      <point x="499" y="505" type="line"/>
      <point x="121" y="505" type="line"/>
      <point x="65" y="131" type="line"/>
      <point x="97" y="116" type="line"/>
      <point x="182" y="186" type="line"/>
      <point x="313" y="186" type="line"/>
      <point x="417" y="58" type="line"/>
      <point x="404" y="-108" type="line"/>
      <point x="328" y="-189" type="line"/>
      <point x="197" y="-186" type="line"/>
      <point x="128" y="-125" type="line"/>
      <point x="101" y="7" type="line"/>
    </contour>
  </outline>
</glyph>
<glyph name="four.osf" format="2">
  <advance width="601"/>
  <outline>
    <contour>
      <point x="350" y="365" type="line"/>
      <point x="109" y="80" type="line"/>
      <point x="350" y="80" type="line"/>
    </contour>
    <contour>
      <point x="407" y="505" type="line"/>
      <point x="468" y="505" type="line"/>
      <point x="468" y="80" type="line"/>
      <point x="586" y="80" type="line"/>
      <point x="586" y="0" type="line"/>
      <point x="468" y="0" type="line"/>
      <point x="468" y="-240" type="line"/>
      <point x="350" y="-240" type="line"/>
      <point x="350" y="0" type="line"/>
      <point x="30" y="0" type="line"/>
      <point x="30" y="55" type="line"/>
    </contour>
  </outline>
</glyph>
<glyph name="nine.osf" format="2">
  <advance width="640"/>
  <outline>
    <contour>
      <point x="502" y="147" type="line"/>
      <point x="492" y="180" type="line"/>
      <point x="369" y="126" type="line"/>
      <point x="241" y="144" type="line"/>
      <point x="165" y="269" type="line"/>
      <point x="185" y="402" type="line"/>
      <point x="259" y="463" type="line"/>
      <point x="371" y="447" type="line"/>
      <point x="454" y="308" type="line"/>
      <point x="451" y="57" type="line"/>
      <point x="387" y="-89" type="line"/>
      <point x="308" y="-164" type="line"/>
      <point x="158" y="-201" type="line"/>
      <point x="168" y="-241" type="line"/>
      <point x="421" y="-184" type="line"/>
      <point x="552" y="-47" type="line"/>
      <point x="604" y="166" type="line"/>
      <point x="563" y="390" type="line"/>
      <point x="421" y="505" type="line"/>
      <point x="263" y="512" type="line"/>
      <point x="122" y="452" type="line"/>
      <point x="50" y="322" type="line"/>
      <point x="58" y="170" type="line"/>
      <point x="159" y="66" type="line"/>
      <point x="319" y="54" type="line"/>
    </contour>
  </outline>
</glyph>
<glyph name="one.osf" format="2">
  <advance width="504"/>
  <outline>
    <contour>
      <point x="311" y="518" type="line"/>
      <point x="52" y="443" type="line"/>
      <point x="52" y="412" type="line"/>
      <point x="60" y="412" type="line"/>
      <point x="191" y="451" type="line"/>
      <point x="191" y="75" type="line"/>
      <point x="118" y="30" type="line"/>
      <point x="50" y="27" type="line"/>
      <point x="50" y="0" type="line"/>
      <point x="469" y="0" type="line"/>
      <point x="469" y="27" type="line"/>
      <point x="399" y="30" type="line"/>
      <point x="328" y="75" type="line"/>
      <point x="328" y="518" type="line"/>
    </contour>
  </outline>
</glyph>
<glyph name="seven.osf" format="2">
  <advance width="601"/>
  <outline>
    <contour>
      <point x="38" y="505" type="line"/>
      <point x="38" y="398" type="line"/>
      <point x="419" y="398" type="line"/>
      <point x="281" y="199" type="line"/>
      <point x="192" y="7" type="line"/>
      <point x="166" y="-240" type="line"/>
      <point x="293" y="-240" type="line"/>
      <point x="303" y="-17" type="line"/>
      <point x="364" y="199" type="line"/>
      <point x="540" y="482" type="line"/>
      <point x="529" y="505" type="line"/>
    </contour>
  </outline>
</glyph>
<glyph name="three.osf" format="2">
  <advance width="591"/>
  <outline>
    <contour>
      <point x="72" y="356" type="line"/>
      <point x="40" y="381" type="line"/>
      <point x="119" y="482" type="line"/>
      <point x="243" y="520" type="line"/>
      <point x="423" y="479" type="line"/>
      <point x="499" y="362" type="line"/>
      <point x="454" y="245" type="line"/>
      <point x="293" y="170" type="line"/>
      <point x="481" y="128" type="line"/>
      <point x="539" y="-27" type="line"/>
      <point x="438" y="-192" type="line"/>
      <point x="241" y="-240" type="line"/>
      <point x="33" y="-172" type="line"/>
      <point x="65" y="15" type="line"/>
      <point x="90" y="15" type="line"/>
      <point x="130" y="-136" type="line"/>
      <point x="194" y="-182" type="line"/>
      <point x="322" y="-165" type="line"/>
      <point x="386" y="-68" type="line"/>
      <point x="328" y="86" type="line"/>
      <point x="200" y="151" type="line"/>
      <point x="125" y="141" type="line"/>
      <point x="119" y="179" type="line"/>
      <point x="227" y="209" type="line"/>
      <point x="337" y="300" type="line"/>
      <point x="316" y="419" type="line"/>
      <point x="180" y="455" type="line"/>
    </contour>
  </outline>
</glyph>
<glyph name="two.osf" format="2">
  <advance width="577"/>
  <outline>
    <contour>
      <point x="398" y="88" type="line"/>
      <point x="182" y="89" type="line"/>
      <point x="460" y="272" type="line"/>
      <point x="472" y="413" type="line"/>
      <point x="388" y="508" type="line"/>
      <point x="204" y="518" type="line"/>
      <point x="68" y="452" type="line"/>
      <point x="45" y="301" type="line"/>
      <point x="70" y="295" type="line"/>
      <point x="151" y="450" type="line"/>
      <point x="281" y="451" type="line"/>
      <point x="348" y="364" type="line"/>
      <point x="305" y="230" type="line"/>
      <point x="54" y="52" type="line"/>
      <point x="54" y="0" type="line"/>
      <point x="468" y="0" type="line"/>
      <point x="501" y="176" type="line"/>
      <point x="475" y="176" type="line"/>
      <point x="444" y="105" type="line"/>
    </contour>
  </outline>
</glyph>
<glyph name="zero.osf" format="2">
  <advance width="615"/>
  <outline>
    <contour>
      <point x="432" y="0" type="line"/>
      <point x="199" y="0" type="line"/>
      <point x="55" y="163" type="line"/>
      <point x="55" y="356" type="line"/>
      <point x="199" y="505" type="line"/>
      <point x="432" y="505" type="line"/>
      <point x="560" y="372" type="line"/>
      <point x="560" y="165" type="line"/>
    </contour>
    <contour>
      <point x="307" y="476" type="line"/>
      <point x="225" y="454" type="line"/>
      <point x="168" y="243" type="line"/>
      <point x="227" y="55" type="line"/>
      <point x="313" y="30" type="line"/>
      <point x="387" y="50" type="line"/>
      <point x="448" y="244" type="line"/>
      <point x="386" y="454" type="line"/>
    </contour>
  </outline>
</glyph>
